<?xml version="1.0" encoding="UTF-8" standalone="no"?>
<svg
   xmlns:dc="http://purl.org/dc/elements/1.1/"
   xmlns:cc="http://creativecommons.org/ns#"
   xmlns:rdf="http://www.w3.org/1999/02/22-rdf-syntax-ns#"
   xmlns:svg="http://www.w3.org/2000/svg"
   xmlns="http://www.w3.org/2000/svg"
   xmlns:sodipodi="http://sodipodi.sourceforge.net/DTD/sodipodi-0.dtd"
   xmlns:inkscape="http://www.inkscape.org/namespaces/inkscape"
   id="Layer_1_1_"
   enable-background="new 0 0 64 64"
   height="59.118649"
   viewBox="0 0 7.3898301 7.3898311"
   width="59.118641"
   version="1.1"
   inkscape:version="0.48.4 r9939"
   sodipodi:docname="teachable-machine-blocks-small.svg">
  <metadata
     id="metadata21">
    <rdf:RDF>
      <cc:Work
         rdf:about="">
        <dc:format>image/svg+xml</dc:format>
        <dc:type
           rdf:resource="http://purl.org/dc/dcmitype/StillImage" />
      </cc:Work>
    </rdf:RDF>
  </metadata>
  <defs
     id="defs19" />
  <sodipodi:namedview
     pagecolor="#ffffff"
     bordercolor="#666666"
     borderopacity="1"
     objecttolerance="10"
     gridtolerance="10"
     guidetolerance="10"
     inkscape:pageopacity="0"
     inkscape:pageshadow="2"
     inkscape:window-width="1855"
     inkscape:window-height="1056"
     id="namedview17"
     showgrid="false"
     fit-margin-top="0"
     fit-margin-left="0"
     fit-margin-right="0"
     fit-margin-bottom="0"
     inkscape:zoom="10.429825"
     inkscape:cx="17.162407"
     inkscape:cy="38.956391"
     inkscape:window-x="65"
     inkscape:window-y="24"
     inkscape:window-maximized="1"
     inkscape:current-layer="Layer_1_1_" />
  <path
     d="m 1.847458,5.172881 c 0,0.139175 -0.03202,0.269729 -0.09114,0.385503 -0.140407,0.283277 -0.433537,0.476644 -0.771006,0.476644 -0.476644,0 -0.862147,-0.385503 -0.862147,-0.862147 0,-0.476644 0.385503,-0.862147 0.862147,-0.862147 0.173661,0 0.333774,0.0505 0.468023,0.137943 0.237706,0.153955 0.394124,0.419989 0.394124,0.724204 z"
     id="path3"
     inkscape:connector-curvature="0"
     style="fill:#f6db40;fill-opacity:1" />
  <path
     d="m 6.3685654,2.8926923 c 0.476644,0 0.862147,0.385503 0.862147,0.862147 0,0.476644 -0.385503,0.862147 -0.862147,0.862147 -0.231548,0 -0.440926,-0.08991 -0.594881,-0.24017 -0.16504,-0.155186 -0.267266,-0.376881 -0.267266,-0.621977 0,-0.03941 0.0025,-0.07759 0.0086,-0.115774 0.02463,-0.192136 0.113311,-0.363334 0.243864,-0.493887 0.156418,-0.156418 0.370723,-0.252486 0.609661,-0.252486 z"
     id="path7"
     inkscape:connector-curvature="0"
     style="fill:#f6db40" />
  <path
     style="fill:#f6db40;fill-opacity:1;stroke:none"
     d="M 0.55255309,2.676894 C 0.1313248,2.3981773 0.06897432,1.7816657 0.42404531,1.4062287 0.77059381,1.0398031 1.3635132,1.0987986 1.6478265,1.5279949 2.1132615,2.2306107 1.248691,3.1375113 0.55255309,2.676894 z"
     id="path2988"
     inkscape:connector-curvature="0" />
  <path
     style="fill:#f6db40;fill-opacity:1;stroke:none"
     d="M 3.1732391,1.6131212 C 2.8811053,1.3637245 2.8025906,1.0365761 2.9493459,0.68022276 3.1747531,0.1328859 3.846746,-0.03795311 4.256986,0.34778461 5.0661621,1.1086317 4.0170712,2.3335055 3.1732391,1.6131212 z"
     id="path2990"
     inkscape:connector-curvature="0" />
  <path
     style="fill:#f6db40;fill-opacity:1;stroke:none"
     d="M 3.2468319,4.0111541 C 2.6961712,3.6764084 2.7611803,2.8858803 3.3621529,2.6088224 3.7344227,2.4371999 4.1577169,2.5657354 4.3784522,2.9174268 4.5985209,3.2680563 4.5773113,3.5599022 4.3108956,3.8470138 4.0139835,4.1669907 3.606569,4.2298376 3.2468319,4.0111541 z"
     id="path2992"
     inkscape:connector-curvature="0" />
  <path
     style="fill:#f6db40;fill-opacity:1;stroke:none"
     d="M 3.1929615,7.0175281 C 2.9050195,6.7734284 2.8276312,6.4532282 2.9722809,6.1044434 3.1944537,5.5687312 3.8568042,5.4015206 4.2611577,5.7790658 5.0587232,6.5237535 4.0246854,7.7226127 3.1929615,7.0175281 z"
     id="path2994"
     inkscape:connector-curvature="0" />
  <path
     style="fill:#f6db40;fill-opacity:1;stroke:none"
     d=""
     id="path3001"
     inkscape:connector-curvature="0"
     transform="scale(0.125,0.125)" />
  <path
     d="M 1.411951,4.286101 C 1.282629,4.223661 1.138281,4.187571 0.985311,4.187571 0.442036,4.187571 0,4.629606 0,5.172882 c 0,0.543276 0.442036,0.985311 0.985311,0.985311 0.340918,0 0.641807,-0.174154 0.818793,-0.438094 l 0.93075,0.465929 c -0.01601,0.07033 -0.02525,0.143362 -0.02525,0.218492 0,0.543276 0.442035,0.985311 0.985311,0.985311 0.543275,0 0.98531,-0.442035 0.98531,-0.985311 0,-0.204205 -0.06244,-0.394001 -0.16935,-0.551527 L 5.818752,4.485504 c 0.164054,0.121686 0.366289,0.194722 0.585767,0.194722 0.543276,0 0.985311,-0.442035 0.985311,-0.98531 0,-0.543276 -0.442035,-0.985311 -0.985311,-0.985311 -0.22736,0 -0.436246,0.07809 -0.603256,0.207901 L 4.472325,1.588568 C 4.60214,1.421558 4.680225,1.212672 4.680225,0.985311 4.680225,0.442036 4.23819,0 3.694915,0 3.151639,0 2.709604,0.442036 2.709604,0.985311 c 0,0.07488 0.0091,0.147674 0.02512,0.217877 L 1.861246,1.521443 C 1.697568,1.203557 1.36675,0.98531 0.985311,0.98531 0.442036,0.98531 0,1.427345 0,1.970621 c 0,0.543276 0.442036,0.985311 0.985311,0.985311 0.140161,0 0.273301,-0.02981 0.394125,-0.08289 l 0.453366,0.763 z m -0.42664,1.625763 c -0.407549,0 -0.738983,-0.331434 -0.738983,-0.738983 0,-0.407549 0.331434,-0.738983 0.738983,-0.738983 0.407549,0 0.738983,0.331434 0.738983,0.738983 0,0.407549 -0.331434,0.738983 -0.738983,0.738983 z M 1.913843,5.499388 C 1.949933,5.397039 1.970623,5.287423 1.970623,5.172881 1.970623,4.87076 1.833665,4.600292 1.61899,4.419488 L 1.973209,3.872394 3.041163,5.669477 C 2.951253,5.749537 2.876,5.845355 2.820207,5.953124 z M 3.694916,1.970621 c 0.22736,0 0.436246,-0.07809 0.603256,-0.207901 L 5.627233,3.091781 C 5.547543,3.194254 5.487935,3.312614 5.453572,3.441444 L 4.679857,3.33503 c -1.23e-4,-0.0032 3.69e-4,-0.0064 3.69e-4,-0.0096 0,-0.543275 -0.442035,-0.985311 -0.98531,-0.985311 -0.340918,0 -0.64193,0.174154 -0.818793,0.438094 L 2.729188,2.704803 3.268399,1.872092 c 0.129199,0.06244 0.273547,0.09853 0.426517,0.09853 z M 3.81808,5.427707 V 4.302112 C 4.218362,4.251862 4.544007,3.960949 4.645987,3.578894 l 0.773715,0.106414 c 0,0.0032 -4.92e-4,0.0064 -4.92e-4,0.0096 0,0.235243 0.08301,0.451149 0.221079,0.620746 L 4.347068,5.667869 C 4.202104,5.539409 4.019699,5.453072 3.81808,5.4277 z M 3.694916,2.58644 c 0.407549,0 0.738983,0.331434 0.738983,0.738983 0,0.407549 -0.331434,0.738983 -0.738983,0.738983 -0.407549,0 -0.738983,-0.331434 -0.738983,-0.738983 0,-0.407549 0.331434,-0.738983 0.738983,-0.738983 z M 2.766384,2.998916 c -0.03609,0.102349 -0.05678,0.211965 -0.05678,0.326507 0,0.501523 0.376881,0.915847 0.862147,0.976813 V 5.42783 C 3.454992,5.44249 3.34476,5.47747 3.244381,5.529317 L 2.122605,3.641585 2.594446,2.912948 z m 0.928532,4.144586 c -0.407549,0 -0.738983,-0.331434 -0.738983,-0.738983 0,-0.407549 0.331434,-0.738983 0.738983,-0.738983 0.407549,0 0.738983,0.331434 0.738983,0.738983 0,0.407549 -0.331434,0.738983 -0.738983,0.738983 z M 6.40452,2.955932 c 0.407549,0 0.738983,0.331434 0.738983,0.738983 0,0.407549 -0.331434,0.738983 -0.738983,0.738983 -0.407549,0 -0.738983,-0.331434 -0.738983,-0.738983 0,-0.407549 0.331434,-0.738983 0.738983,-0.738983 z M 3.694916,0.246327 c 0.407549,0 0.738983,0.331434 0.738983,0.738983 0,0.407549 -0.331434,0.738983 -0.738983,0.738983 -0.407549,0 -0.738983,-0.331434 -0.738983,-0.738983 0,-0.407549 0.331434,-0.738983 0.738983,-0.738983 z M 2.819098,1.434489 c 0.06023,0.116882 0.142623,0.220217 0.242263,0.304214 L 2.507616,2.593953 1.913967,2.297128 c 0.03596,-0.102349 0.05665,-0.211965 0.05665,-0.326507 0,-0.07488 -0.0091,-0.147673 -0.02512,-0.217877 z m -2.57277,0.536132 c 0,-0.407549 0.331434,-0.738983 0.738983,-0.738983 0.407549,0 0.738983,0.331434 0.738983,0.738983 0,0.407549 -0.331434,0.738983 -0.738983,0.738983 -0.407549,0 -0.738983,-0.331434 -0.738983,-0.738983 z M 1.590662,2.74643 C 1.673182,2.68189 1.745602,2.605038 1.804104,2.517838 L 2.372752,2.8021 1.982199,3.405233 z"
     id="path15"
     inkscape:connector-curvature="0"
     style="fill:#ffffff" />
</svg>
