<?xml version="1.0" encoding="UTF-8" standalone="no"?>
<svg
   xmlns:dc="http://purl.org/dc/elements/1.1/"
   xmlns:cc="http://creativecommons.org/ns#"
   xmlns:rdf="http://www.w3.org/1999/02/22-rdf-syntax-ns#"
   xmlns:svg="http://www.w3.org/2000/svg"
   xmlns="http://www.w3.org/2000/svg"
   xmlns:sodipodi="http://sodipodi.sourceforge.net/DTD/sodipodi-0.dtd"
   xmlns:inkscape="http://www.inkscape.org/namespaces/inkscape"
   id="Layer_1_1_"
   enable-background="new 0 0 64 64"
   height="72.780205"
   viewBox="0 0 9.1991234 9.0975256"
   width="73.592987"
   version="1.1"
   inkscape:version="0.48.4 r9939"
   sodipodi:docname="teachable-machine-blocks-menu.svg">
  <metadata
     id="metadata21">
    <rdf:RDF>
      <cc:Work
         rdf:about="">
        <dc:format>image/svg+xml</dc:format>
        <dc:type
           rdf:resource="http://purl.org/dc/dcmitype/StillImage" />
        <dc:title />
      </cc:Work>
    </rdf:RDF>
  </metadata>
  <defs
     id="defs19" />
  <sodipodi:namedview
     pagecolor="#ffffff"
     bordercolor="#666666"
     borderopacity="1"
     objecttolerance="10"
     gridtolerance="10"
     guidetolerance="10"
     inkscape:pageopacity="0"
     inkscape:pageshadow="2"
     inkscape:window-width="1855"
     inkscape:window-height="1056"
     id="namedview17"
     showgrid="false"
     fit-margin-top="0"
     fit-margin-left="0"
     fit-margin-right="0"
     fit-margin-bottom="0"
     inkscape:zoom="10.429825"
     inkscape:cx="26.215729"
     inkscape:cy="44.901574"
     inkscape:window-x="65"
     inkscape:window-y="24"
     inkscape:window-maximized="1"
     inkscape:current-layer="Layer_1_1_" />
  <path
     sodipodi:type="arc"
     style="fill:#80b3ff;fill-opacity:1;stroke:#0055d4"
     id="path2993"
     sodipodi:cx="-4.3624892"
     sodipodi:cy="28.581223"
     sodipodi:rx="32.934399"
     sodipodi:ry="32.934399"
     d="m 28.571909,28.581223 a 32.934399,32.934399 0 1 1 -65.868797,0 32.934399,32.934399 0 1 1 65.868797,0 z"
     transform="matrix(0.13755698,0,0,0.13610137,5.2013733,0.65924101)" />
  <path
     d="m 2.9791233,6.137428 c 0,0.139175 -0.03202,0.269729 -0.09114,0.385503 -0.140407,0.283277 -0.433537,0.476644 -0.771006,0.476644 -0.476644,0 -0.862147,-0.385503 -0.862147,-0.862147 0,-0.476644 0.385503,-0.862147 0.862147,-0.862147 0.173661,0 0.333774,0.0505 0.468023,0.137943 0.237706,0.153955 0.394124,0.419989 0.394124,0.724204 z"
     id="path3"
     inkscape:connector-curvature="0"
     style="fill:#f6db40;fill-opacity:1" />
  <path
     d="m 7.5002307,3.8572393 c 0.476644,0 0.862147,0.385503 0.862147,0.862147 0,0.476644 -0.385503,0.862147 -0.862147,0.862147 -0.231548,0 -0.440926,-0.08991 -0.594881,-0.24017 -0.16504,-0.155186 -0.267266,-0.376881 -0.267266,-0.621977 0,-0.03941 0.0025,-0.07759 0.0086,-0.115774 0.02463,-0.192136 0.113311,-0.363334 0.243864,-0.493887 0.156418,-0.156418 0.370723,-0.252486 0.609661,-0.252486 z"
     id="path7"
     inkscape:connector-curvature="0"
     style="fill:#f6db40" />
  <path
     style="fill:#f6db40;fill-opacity:1;stroke:none"
     d="M 1.6842184,3.641441 C 1.2629901,3.3627243 1.2006396,2.7462127 1.5557106,2.3707757 1.9022591,2.0043501 2.4951785,2.0633456 2.7794918,2.4925419 3.2449268,3.1951577 2.3803563,4.1020583 1.6842184,3.641441 z"
     id="path2988"
     inkscape:connector-curvature="0" />
  <path
     style="fill:#f6db40;fill-opacity:1;stroke:none"
     d="M 4.3049044,2.5776682 C 4.0127706,2.3282715 3.9342559,2.0011231 4.0810112,1.6447697 4.3064184,1.0974329 4.9784113,0.92659387 5.3886513,1.3123316 6.1978274,2.0731787 5.1487365,3.2980525 4.3049044,2.5776682 z"
     id="path2990"
     inkscape:connector-curvature="0" />
  <path
     style="fill:#f6db40;fill-opacity:1;stroke:none"
     d="M 4.3784972,4.9757011 C 3.8278365,4.6409554 3.8928456,3.8504273 4.4938182,3.5733694 4.866088,3.4017469 5.2893822,3.5302824 5.5101175,3.8819738 5.7301862,4.2326033 5.7089766,4.5244492 5.4425609,4.8115608 5.1456488,5.1315377 4.7382343,5.1943846 4.3784972,4.9757011 z"
     id="path2992"
     inkscape:connector-curvature="0" />
  <path
     style="fill:#f6db40;fill-opacity:1;stroke:none"
     d="M 4.3246268,7.9820751 C 4.0366848,7.7379754 3.9592965,7.4177752 4.1039462,7.0689904 4.326119,6.5332782 4.9884695,6.3660676 5.392823,6.7436128 6.1903885,7.4883005 5.1563507,8.6871597 4.3246268,7.9820751 z"
     id="path2994"
     inkscape:connector-curvature="0" />
  <path
     style="fill:#f6db40;fill-opacity:1;stroke:none"
     d=""
     id="path3001"
     inkscape:connector-curvature="0" />
  <path
     d="m 2.5436163,5.250648 c -0.129322,-0.06244 -0.27367,-0.09853 -0.42664,-0.09853 -0.543275,0 -0.985311,0.442035 -0.985311,0.985311 0,0.543276 0.442036,0.985311 0.985311,0.985311 0.340918,0 0.641807,-0.174154 0.818793,-0.438094 l 0.93075,0.465929 c -0.01601,0.07033 -0.02525,0.143362 -0.02525,0.218492 0,0.543276 0.442035,0.985311 0.985311,0.985311 0.543275,0 0.98531,-0.442035 0.98531,-0.985311 0,-0.204205 -0.06244,-0.394001 -0.16935,-0.551527 l 1.307877,-1.367489 c 0.164054,0.121686 0.366289,0.194722 0.585767,0.194722 0.543276,0 0.985311,-0.442035 0.985311,-0.98531 0,-0.543276 -0.442035,-0.985311 -0.985311,-0.985311 -0.22736,0 -0.436246,0.07809 -0.603256,0.207901 L 5.6039903,2.553115 c 0.129815,-0.16701 0.2079,-0.375896 0.2079,-0.603257 0,-0.543275 -0.442035,-0.98531102 -0.98531,-0.98531102 -0.543276,0 -0.985311,0.44203602 -0.985311,0.98531102 0,0.07488 0.0091,0.147674 0.02512,0.217877 L 2.9929113,2.48599 C 2.8292333,2.168104 2.4984153,1.949857 2.1169763,1.949857 c -0.543275,0 -0.985311,0.442035 -0.985311,0.985311 0,0.543276 0.442036,0.985311 0.985311,0.985311 0.140161,0 0.273301,-0.02981 0.394125,-0.08289 l 0.453366,0.763 z m -0.42664,1.625763 c -0.407549,0 -0.738983,-0.331434 -0.738983,-0.738983 0,-0.407549 0.331434,-0.738983 0.738983,-0.738983 0.407549,0 0.738983,0.331434 0.738983,0.738983 0,0.407549 -0.331434,0.738983 -0.738983,0.738983 z m 0.928532,-0.412476 c 0.03609,-0.102349 0.05678,-0.211965 0.05678,-0.326507 0,-0.302121 -0.136958,-0.572589 -0.351633,-0.753393 l 0.354219,-0.547094 1.067954,1.797083 c -0.08991,0.08006 -0.165163,0.175878 -0.220956,0.283647 z m 1.781073,-3.528767 c 0.22736,0 0.436246,-0.07809 0.603256,-0.207901 l 1.329061,1.329061 c -0.07969,0.102473 -0.139298,0.220833 -0.173661,0.349663 L 5.8115223,4.299577 c -1.23e-4,-0.0032 3.69e-4,-0.0064 3.69e-4,-0.0096 0,-0.543275 -0.442035,-0.985311 -0.98531,-0.985311 -0.340918,0 -0.64193,0.174154 -0.818793,0.438094 L 3.8608533,3.66935 4.4000643,2.836639 c 0.129199,0.06244 0.273547,0.09853 0.426517,0.09853 z m 0.123164,3.457086 V 5.266659 c 0.400282,-0.05025 0.725927,-0.341163 0.827907,-0.723218 l 0.773715,0.106414 c 0,0.0032 -4.92e-4,0.0064 -4.92e-4,0.0096 0,0.235243 0.08301,0.451149 0.221079,0.620746 L 5.4787333,6.632416 C 5.3337693,6.503956 5.1513643,6.417619 4.9497453,6.392247 z M 4.8265813,3.550987 c 0.407549,0 0.738983,0.331434 0.738983,0.738983 0,0.407549 -0.331434,0.738983 -0.738983,0.738983 -0.407549,0 -0.738983,-0.331434 -0.738983,-0.738983 0,-0.407549 0.331434,-0.738983 0.738983,-0.738983 z m -0.928532,0.412476 c -0.03609,0.102349 -0.05678,0.211965 -0.05678,0.326507 0,0.501523 0.376881,0.915847 0.862147,0.976813 v 1.125594 c -0.116759,0.01466 -0.226991,0.04964 -0.32737,0.101487 L 3.2542703,4.606132 3.7261113,3.877495 z m 0.928532,4.144586 c -0.407549,0 -0.738983,-0.331434 -0.738983,-0.738983 0,-0.407549 0.331434,-0.738983 0.738983,-0.738983 0.407549,0 0.738983,0.331434 0.738983,0.738983 0,0.407549 -0.331434,0.738983 -0.738983,0.738983 z m 2.709604,-4.18757 c 0.407549,0 0.738983,0.331434 0.738983,0.738983 0,0.407549 -0.331434,0.738983 -0.738983,0.738983 -0.407549,0 -0.738983,-0.331434 -0.738983,-0.738983 0,-0.407549 0.331434,-0.738983 0.738983,-0.738983 z M 4.8265813,1.210874 c 0.407549,0 0.738983,0.331434 0.738983,0.738983 0,0.407549 -0.331434,0.738983 -0.738983,0.738983 -0.407549,0 -0.738983,-0.331434 -0.738983,-0.738983 0,-0.407549 0.331434,-0.738983 0.738983,-0.738983 z m -0.875818,1.188162 c 0.06023,0.116882 0.142623,0.220217 0.242263,0.304214 L 3.6392813,3.5585 3.0456323,3.261675 c 0.03596,-0.102349 0.05665,-0.211965 0.05665,-0.326507 0,-0.07488 -0.0091,-0.147673 -0.02512,-0.217877 z m -2.57277,0.536132 c 0,-0.407549 0.331434,-0.738983 0.738983,-0.738983 0.407549,0 0.738983,0.331434 0.738983,0.738983 0,0.407549 -0.331434,0.738983 -0.738983,0.738983 -0.407549,0 -0.738983,-0.331434 -0.738983,-0.738983 z m 1.344334,0.775809 c 0.08252,-0.06454 0.15494,-0.141392 0.213442,-0.228592 l 0.568648,0.284262 -0.390553,0.603133 z"
     id="path15"
     inkscape:connector-curvature="0"
     style="fill:#ffffff" />
</svg>
