<?xml version="1.0" encoding="UTF-8" standalone="no"?>
<svg
   xmlns:dc="http://purl.org/dc/elements/1.1/"
   xmlns:cc="http://creativecommons.org/ns#"
   xmlns:rdf="http://www.w3.org/1999/02/22-rdf-syntax-ns#"
   xmlns:svg="http://www.w3.org/2000/svg"
   xmlns="http://www.w3.org/2000/svg"
   xmlns:sodipodi="http://sodipodi.sourceforge.net/DTD/sodipodi-0.dtd"
   xmlns:inkscape="http://www.inkscape.org/namespaces/inkscape"
   inkscape:version="1.0beta1 (32d4812, 2019-09-19)"
   sodipodi:docname="video-sensing-small.svg"
   id="svg117"
   version="1.1"
   viewBox="0 0 40 40"
   height="40px"
   width="40px">
  <metadata
     id="metadata123">
    <rdf:RDF>
      <cc:Work
         rdf:about="">
        <dc:format>image/svg+xml</dc:format>
        <dc:type
           rdf:resource="http://purl.org/dc/dcmitype/StillImage" />
      </cc:Work>
    </rdf:RDF>
  </metadata>
  <defs
     id="defs121" />
  <sodipodi:namedview
     inkscape:current-layer="Extensions/Software/Video-Sensing-Block"
     inkscape:window-maximized="0"
     inkscape:window-y="96"
     inkscape:window-x="571"
     inkscape:cy="6.5903056"
     inkscape:cx="14.467069"
     inkscape:zoom="7.04"
     inkscape:snap-smooth-nodes="false"
     showgrid="false"
     id="namedview119"
     inkscape:window-height="907"
     inkscape:window-width="1600"
     inkscape:pageshadow="2"
     inkscape:pageopacity="0"
     guidetolerance="10"
     gridtolerance="10"
     objecttolerance="10"
     borderopacity="1"
     inkscape:document-rotation="0"
     bordercolor="#666666"
     pagecolor="#ffffff" />
  <!-- Generator: Sketch 52.2 (67145) - http://www.bohemiancoding.com/sketch -->
  <title
     id="title104">Extensions/Software/Video-Sensing-Block</title>
  <desc
     id="desc106">Created with Sketch.</desc>
  <g
     stroke-opacity="0.15"
     fill-rule="evenodd"
     fill="none"
     stroke-width="1"
     stroke="none"
     id="Extensions/Software/Video-Sensing-Block">
    <circle
       id="Oval-Copy"
       fill="#FFFFFF"
       opacity="0.25"
       stroke-linecap="round"
       stroke-linejoin="round"
       cx="31.144329"
       cy="12.584773"
       r="4.5"
       style="fill-rule:nonzero;stroke:#000000;stop-opacity:1" />
    <circle
       id="circle109"
       fill="#FFFFFF"
       opacity="0.5"
       stroke-linecap="round"
       stroke-linejoin="round"
       cx="25.314833"
       cy="10.460436"
       r="4.5"
       style="fill-rule:nonzero;stroke:#000000;stop-opacity:1" />
    <circle
       id="circle111"
       fill="#FFFFFF"
       opacity="0.75"
       stroke-linecap="round"
       stroke-linejoin="round"
       cx="19.36677"
       cy="9.4039783"
       r="4.5"
       style="fill-rule:nonzero;stroke:#000000;stop-opacity:1" />
    <circle
       id="Oval"
       fill="#FFFFFF"
       stroke-linecap="round"
       stroke-linejoin="round"
       cx="14.53394"
       cy="9.5906477"
       r="4.5"
       style="opacity:1;fill-rule:nonzero;stroke:#000000;stop-opacity:1" />
    <path
       sodipodi:nodetypes="ccscssscsscccssccc"
       d="m 23.998208,-23.246205 -6.171948,4.000336 -2.65252,-8.420709 c -0.603967,-1.91736 -3.5,0.37878 -3.5,0.37878 l -0.94244,4.244032 c -0.438736,1.97573 -8.9050401,-0.545874 -8.9050401,1.477984 v 7.9 c 0,1.927399 1.5844984,3.511897 3.6,3.6 H 14.32626 c 1.90166,0 3.5,-1.653455 3.5,-3.6 v -2.283095 l 6.257248,3.754349 0.09631,0.07519 c 0.02023,0.02024 0.09797,0.05356 0.146442,0.05356 0.266987,0 0.5,-0.217479 0.5,-0.5 v -10.3 c 0,0.03676 -0.05619,-0.09435 -0.128746,-0.242752 -0.145348,-0.242247 -0.42966,-0.299109 -0.699306,-0.137671 z"
       id="video_37_"
       fill="#4D4D4D"
       inkscape:connector-curvature="0"
       style="opacity:1;fill-rule:nonzero;stroke:#000000;stop-opacity:1" />
    <path
       sodipodi:nodetypes="csscscscccsccccc"
       inkscape:connector-curvature="0"
       id="path136"
       d="m 16.037135,33.883052 c 2.387268,-1.32626 4.6313,-3.161804 4.896552,-5.814324 0.265252,-2.65252 2.567596,-8.040283 0.143236,-6.100796 -2.42436,1.939487 -2.387268,4.122016 -2.387268,4.122016 -2.369183,2.637491 -3.329031,1.204555 -3.680851,-0.63813 -0.351819,-1.842684 -0.09561,-4.095117 -0.03268,-5.218634 0.263529,-2.655096 -0.265252,-7.039788 -1.32626,-5.97878 -1.061008,1.061008 -0.795756,5.30504 -0.795756,5.30504 -1.834792,9.494514 -0.970779,-4.405385 -4.509283,-6.100796 -1.5915123,1.061008 0.795756,7.161804 0.795756,7.161804 0,0 1.061008,2.387268 0,2.917772 -1.0610084,0.530504 -3.1830243,-6.896552 -3.1830243,-6.896552 -1.1614272,-2.140677 -1.9674348,1.034819 -1.32626,2.122016 0.795756,1.32626 3.1830239,7.161804 3.1830239,7.161804 -11.4191681,-12.531676 -0.1089832,9.973769 3.7135274,8.488064 z"
       style="fill:#4b97ff;fill-opacity:1;stroke:#3d79cc;stroke-width:1px;stroke-linecap:butt;stroke-linejoin:miter;stroke-opacity:1" />
  </g>
</svg>
