<?xml version="1.0" encoding="UTF-8" standalone="no"?>
<svg
   xmlns:dc="http://purl.org/dc/elements/1.1/"
   xmlns:cc="http://creativecommons.org/ns#"
   xmlns:rdf="http://www.w3.org/1999/02/22-rdf-syntax-ns#"
   xmlns:svg="http://www.w3.org/2000/svg"
   xmlns="http://www.w3.org/2000/svg"
   xmlns:sodipodi="http://sodipodi.sourceforge.net/DTD/sodipodi-0.dtd"
   xmlns:inkscape="http://www.inkscape.org/namespaces/inkscape"
   id="Layer_1_1_"
   enable-background="new 0 0 64 64"
   height="59.118649"
   viewBox="0 0 7.3898301 7.3898311"
   width="59.118641"
   version="1.1"
   inkscape:version="0.48.4 r9939"
   sodipodi:docname="teachable-machine-blocks-small.svg">
  <metadata
     id="metadata21">
    <rdf:RDF>
      <cc:Work
         rdf:about="">
        <dc:format>image/svg+xml</dc:format>
        <dc:type
           rdf:resource="http://purl.org/dc/dcmitype/StillImage" />
      </cc:Work>
    </rdf:RDF>
  </metadata>
  <defs
     id="defs19" />
  <sodipodi:namedview
     pagecolor="#ffffff"
     bordercolor="#666666"
     borderopacity="1"
     objecttolerance="10"
     gridtolerance="10"
     guidetolerance="10"
     inkscape:pageopacity="0"
     inkscape:pageshadow="2"
     inkscape:window-width="1301"
     inkscape:window-height="744"
     id="namedview17"
     showgrid="false"
     fit-margin-top="0"
     fit-margin-left="0"
     fit-margin-right="0"
     fit-margin-bottom="0"
     inkscape:zoom="10.429825"
     inkscape:cx="17.162407"
     inkscape:cy="38.956391"
     inkscape:window-x="65"
     inkscape:window-y="24"
     inkscape:window-maximized="1"
     inkscape:current-layer="Layer_1_1_" />
  <path
     d="m 1.847458,5.172881 c 0,0.139175 -0.03202,0.269729 -0.09114,0.385503 -0.140407,0.283277 -0.433537,0.476644 -0.771006,0.476644 -0.476644,0 -0.862147,-0.385503 -0.862147,-0.862147 0,-0.476644 0.385503,-0.862147 0.862147,-0.862147 0.173661,0 0.333774,0.0505 0.468023,0.137943 0.237706,0.153955 0.394124,0.419989 0.394124,0.724204 z"
     id="path3"
     inkscape:connector-curvature="0"
     style="fill:#f6db40;fill-opacity:1" />
  <path
     d="m 4.348916,5.844124 c 0.130553,0.15026 0.208147,0.34609 0.208147,0.560395 0,0.476644 -0.385503,0.862147 -0.862147,0.862147 -0.476644,0 -0.862147,-0.385503 -0.862147,-0.862147 0,-0.09976 0.01724,-0.194599 0.04803,-0.283277 C 2.939919,5.947581 3.053228,5.801016 3.201025,5.697559 3.3402,5.599029 3.510166,5.542372 3.694912,5.542372 c 0.262339,0 0.497582,0.117006 0.654,0.301752 z"
     id="path5"
     inkscape:connector-curvature="0"
     style="fill:#71d2df" />
  <path
     d="m 6.40452,2.832768 c 0.476644,0 0.862147,0.385503 0.862147,0.862147 0,0.476644 -0.385503,0.862147 -0.862147,0.862147 -0.231548,0 -0.440926,-0.08991 -0.594881,-0.24017 C 5.644599,4.161706 5.542373,3.940011 5.542373,3.694915 c 0,-0.03941 0.0025,-0.07759 0.0086,-0.115774 C 5.575603,3.387005 5.664284,3.215807 5.794837,3.085254 5.951255,2.928836 6.16556,2.832768 6.404498,2.832768 z"
     id="path7"
     inkscape:connector-curvature="0"
     style="fill:#f6db40" />
  <path
     d="M 4.548441,3.441197 C 4.493021,3.862418 4.132147,4.18757 3.694916,4.18757 c -0.476644,0 -0.862147,-0.385503 -0.862147,-0.862147 0,-0.139175 0.03202,-0.269729 0.09114,-0.385503 0.140407,-0.283276 0.433537,-0.476644 0.771006,-0.476644 0.476644,0 0.862147,0.385503 0.862147,0.862147 0,0.03941 -0.0025,0.07759 -0.0086,0.115774 z"
     id="path9"
     inkscape:connector-curvature="0"
     style="fill:#db535b" />
  <path
     d="m 3.694916,0.123163 c 0.476644,0 0.862147,0.385503 0.862147,0.862147 0,0.238938 -0.09607,0.453243 -0.252486,0.609661 -0.156418,0.156418 -0.370723,0.252486 -0.609661,0.252486 -0.173661,0 -0.333774,-0.0505 -0.468023,-0.137943 C 3.070475,1.608519 2.948543,1.458259 2.884498,1.279672 2.851248,1.188532 2.832768,1.088768 2.832768,0.98531 c 0,-0.476644 0.385503,-0.862147 0.862147,-0.862147 z"
     id="path11"
     inkscape:connector-curvature="0"
     style="fill:#8360f4" />
  <path
     d="m 1.795729,1.676259 c 0.03325,0.09114 0.05173,0.190904 0.05173,0.294362 0,0.139175 -0.03202,0.269729 -0.09114,0.385503 -0.0739,0.147796 -0.188441,0.27096 -0.330079,0.354712 -0.128091,0.07759 -0.279582,0.121932 -0.440927,0.121932 -0.476644,0 -0.862147,-0.385503 -0.862147,-0.862147 0,-0.476644 0.385503,-0.862147 0.862147,-0.862147 0.373187,0 0.689718,0.236475 0.810418,0.567785 z"
     id="path13"
     inkscape:connector-curvature="0"
     style="fill:#6599ed" />
  <path
     d="M 1.411951,4.286101 C 1.282629,4.223661 1.138281,4.187571 0.985311,4.187571 0.442036,4.187571 0,4.629606 0,5.172882 c 0,0.543276 0.442036,0.985311 0.985311,0.985311 0.340918,0 0.641807,-0.174154 0.818793,-0.438094 l 0.93075,0.465929 c -0.01601,0.07033 -0.02525,0.143362 -0.02525,0.218492 0,0.543276 0.442035,0.985311 0.985311,0.985311 0.543275,0 0.98531,-0.442035 0.98531,-0.985311 0,-0.204205 -0.06244,-0.394001 -0.16935,-0.551527 L 5.818752,4.485504 c 0.164054,0.121686 0.366289,0.194722 0.585767,0.194722 0.543276,0 0.985311,-0.442035 0.985311,-0.98531 0,-0.543276 -0.442035,-0.985311 -0.985311,-0.985311 -0.22736,0 -0.436246,0.07809 -0.603256,0.207901 L 4.472325,1.588568 C 4.60214,1.421558 4.680225,1.212672 4.680225,0.985311 4.680225,0.442036 4.23819,0 3.694915,0 3.151639,0 2.709604,0.442036 2.709604,0.985311 c 0,0.07488 0.0091,0.147674 0.02512,0.217877 L 1.861246,1.521443 C 1.697568,1.203557 1.36675,0.98531 0.985311,0.98531 0.442036,0.98531 0,1.427345 0,1.970621 c 0,0.543276 0.442036,0.985311 0.985311,0.985311 0.140161,0 0.273301,-0.02981 0.394125,-0.08289 l 0.453366,0.763 z m -0.42664,1.625763 c -0.407549,0 -0.738983,-0.331434 -0.738983,-0.738983 0,-0.407549 0.331434,-0.738983 0.738983,-0.738983 0.407549,0 0.738983,0.331434 0.738983,0.738983 0,0.407549 -0.331434,0.738983 -0.738983,0.738983 z M 1.913843,5.499388 C 1.949933,5.397039 1.970623,5.287423 1.970623,5.172881 1.970623,4.87076 1.833665,4.600292 1.61899,4.419488 L 1.973209,3.872394 3.041163,5.669477 C 2.951253,5.749537 2.876,5.845355 2.820207,5.953124 z M 3.694916,1.970621 c 0.22736,0 0.436246,-0.07809 0.603256,-0.207901 L 5.627233,3.091781 C 5.547543,3.194254 5.487935,3.312614 5.453572,3.441444 L 4.679857,3.33503 c -1.23e-4,-0.0032 3.69e-4,-0.0064 3.69e-4,-0.0096 0,-0.543275 -0.442035,-0.985311 -0.98531,-0.985311 -0.340918,0 -0.64193,0.174154 -0.818793,0.438094 L 2.729188,2.704803 3.268399,1.872092 c 0.129199,0.06244 0.273547,0.09853 0.426517,0.09853 z M 3.81808,5.427707 V 4.302112 C 4.218362,4.251862 4.544007,3.960949 4.645987,3.578894 l 0.773715,0.106414 c 0,0.0032 -4.92e-4,0.0064 -4.92e-4,0.0096 0,0.235243 0.08301,0.451149 0.221079,0.620746 L 4.347068,5.667869 C 4.202104,5.539409 4.019699,5.453072 3.81808,5.4277 z M 3.694916,2.58644 c 0.407549,0 0.738983,0.331434 0.738983,0.738983 0,0.407549 -0.331434,0.738983 -0.738983,0.738983 -0.407549,0 -0.738983,-0.331434 -0.738983,-0.738983 0,-0.407549 0.331434,-0.738983 0.738983,-0.738983 z M 2.766384,2.998916 c -0.03609,0.102349 -0.05678,0.211965 -0.05678,0.326507 0,0.501523 0.376881,0.915847 0.862147,0.976813 V 5.42783 C 3.454992,5.44249 3.34476,5.47747 3.244381,5.529317 L 2.122605,3.641585 2.594446,2.912948 z m 0.928532,4.144586 c -0.407549,0 -0.738983,-0.331434 -0.738983,-0.738983 0,-0.407549 0.331434,-0.738983 0.738983,-0.738983 0.407549,0 0.738983,0.331434 0.738983,0.738983 0,0.407549 -0.331434,0.738983 -0.738983,0.738983 z M 6.40452,2.955932 c 0.407549,0 0.738983,0.331434 0.738983,0.738983 0,0.407549 -0.331434,0.738983 -0.738983,0.738983 -0.407549,0 -0.738983,-0.331434 -0.738983,-0.738983 0,-0.407549 0.331434,-0.738983 0.738983,-0.738983 z M 3.694916,0.246327 c 0.407549,0 0.738983,0.331434 0.738983,0.738983 0,0.407549 -0.331434,0.738983 -0.738983,0.738983 -0.407549,0 -0.738983,-0.331434 -0.738983,-0.738983 0,-0.407549 0.331434,-0.738983 0.738983,-0.738983 z M 2.819098,1.434489 c 0.06023,0.116882 0.142623,0.220217 0.242263,0.304214 L 2.507616,2.593953 1.913967,2.297128 c 0.03596,-0.102349 0.05665,-0.211965 0.05665,-0.326507 0,-0.07488 -0.0091,-0.147673 -0.02512,-0.217877 z m -2.57277,0.536132 c 0,-0.407549 0.331434,-0.738983 0.738983,-0.738983 0.407549,0 0.738983,0.331434 0.738983,0.738983 0,0.407549 -0.331434,0.738983 -0.738983,0.738983 -0.407549,0 -0.738983,-0.331434 -0.738983,-0.738983 z M 1.590662,2.74643 C 1.673182,2.68189 1.745602,2.605038 1.804104,2.517838 L 2.372752,2.8021 1.982199,3.405233 z"
     id="path15"
     inkscape:connector-curvature="0"
     style="fill:#ffffff" />
  <path
     style="fill:#f6db40;fill-opacity:1;stroke:none"
     d="M 4.9137802,20.344742 C 1.9766598,18.506743 1.5419055,14.441153 4.017727,11.965331 c 2.4163967,-2.4163964 6.550676,-2.0273505 8.533122,0.802988 3.245363,4.633405 -2.7830727,10.613968 -7.6370688,7.576423 z"
     id="path2988"
     inkscape:connector-curvature="0"
     transform="scale(0.125,0.125)" />
  <path
     style="fill:#f6db40;fill-opacity:1;stroke:none"
     d="M 26.015847,11.897318 C 24.097955,10.283517 23.582496,8.1665981 24.545962,5.860699 26.025786,2.3189803 30.437496,1.2135111 33.130769,3.7095515 38.443103,8.6328571 31.555701,16.558797 26.015847,11.897318 z"
     id="path2990"
     inkscape:connector-curvature="0"
     transform="scale(0.125,0.125)" />
  <path
     style="fill:#f6db40;fill-opacity:1;stroke:none"
     d="m 26.602391,31.188365 c -3.641332,-2.27845 -3.211449,-7.659189 0.762578,-9.544988 2.461694,-1.16815 5.260795,-0.293272 6.720442,2.10052 1.45524,2.386564 1.314988,4.373017 -0.446729,6.327246 -1.963378,2.177926 -4.657472,2.605694 -7.036291,1.117222 z"
     id="path2992"
     inkscape:connector-curvature="0"
     transform="scale(0.125,0.125)" />
  <path
     style="fill:#f6db40;fill-opacity:1;stroke:none"
     d="m 26.015847,55.287148 c -1.917892,-1.613801 -2.433351,-3.730719 -1.469885,-6.036618 1.479824,-3.541719 5.891534,-4.647188 8.584807,-2.151148 5.312334,4.923306 -1.575068,12.849246 -7.114922,8.187766 z"
     id="path2994"
     inkscape:connector-curvature="0"
     transform="scale(0.125,0.125)" />
  <path
     style="fill:#f6db40;fill-opacity:1;stroke:none"
     d="m 47.508642,33.450694 c -1.801747,-1.941961 -2.187815,-3.69309 -1.288654,-5.845084 2.632443,-6.300324 12.03016,-3.296335 10.37081,3.315039 -0.990524,3.946565 -6.375987,5.44681 -9.082156,2.530045 z"
     id="path2996"
     inkscape:connector-curvature="0"
     transform="scale(0.125,0.125)" />
  <path
     style="fill:#f6db40;fill-opacity:1;stroke:none"
     d="M 6.6318126,21.491765 C 5.0244336,21.142869 3.3544019,19.829437 2.6463321,18.357299 1.8098469,16.618175 1.8204509,14.882896 2.6781314,13.153511 3.1579608,12.186007 3.7447199,11.518296 4.6431518,10.917388 5.6281385,10.258589 6.3427743,10.027565 7.5745184,9.9697485 c 1.8291005,-0.085855 3.1282656,0.4117975 4.4208176,1.6934195 1.172145,1.162234 1.715431,2.482518 1.715431,4.168809 0,2.158255 -1.255999,4.18047 -3.187941,5.132731 -1.2945131,0.638069 -2.5783819,0.811976 -3.8910134,0.527057 z M 8.9647622,21.043411 C 11.087189,20.586923 12.929797,18.71643 13.384083,16.557212 14.07972,13.25085 11.15427,10.129269 7.5745184,10.358155 c -1.4763217,0.09439 -2.5361452,0.576258 -3.6050532,1.639087 -1.0781359,1.072004 -1.5724066,2.289567 -1.5724066,3.873393 0,2.232728 1.3834098,4.207239 3.4995793,4.994874 0.9838604,0.366192 1.9359865,0.4214 3.0681243,0.177902 z"
     id="path2997"
     inkscape:connector-curvature="0"
     transform="scale(0.125,0.125)" />
  <path
     style="fill:#f6db40;fill-opacity:1;stroke:none"
     d="m 28.706427,13.686868 c -2.042634,-0.323477 -3.814916,-1.738699 -4.57017,-3.64942 -0.652472,-1.6506955 -0.580972,-3.145099 0.229102,-4.788377 0.298832,-0.6061967 0.570065,-0.9796747 1.080365,-1.4876232 1.174313,-1.1689031 2.510766,-1.7136554 4.180938,-1.7041942 2.436558,0.013803 4.534618,1.4949972 5.437186,3.8385614 0.329169,0.8547018 0.414853,2.4501002 0.181337,3.3764254 -0.524734,2.0815556 -2.236076,3.7967576 -4.287285,4.2969566 -0.628875,0.153355 -1.679435,0.208262 -2.251473,0.117671 l 0,0 z m 1.631592,-0.393347 c 2.188628,-0.316339 4.105092,-2.171583 4.616151,-4.4686927 0.604964,-2.7191997 -1.274547,-5.6557851 -4.074897,-6.3666988 -0.567854,-0.1441587 -1.784744,-0.1423255 -2.418148,0.00364 -1.537299,0.3542712 -3.077494,1.5732897 -3.756918,2.9734886 -0.515017,1.061378 -0.670419,1.7875398 -0.617542,2.8856414 0.0403,0.8368897 0.08027,0.9945433 0.441238,1.7403005 0.799745,1.652271 2.566264,2.971053 4.326992,3.230286 0.741114,0.109114 0.742257,0.109116 1.483124,0.002 l 0,0 z"
     id="path2999"
     inkscape:connector-curvature="0"
     transform="scale(0.125,0.125)" />
  <path
     style="fill:#f6db40;fill-opacity:1;stroke:none"
     d=""
     id="path3001"
     inkscape:connector-curvature="0"
     transform="scale(0.125,0.125)" />
  <path
     style="fill:#f6db40;fill-opacity:1;stroke:none"
     d="m 28.300441,32.32608 c -1.931744,-0.419304 -3.66552,-2.002942 -4.300202,-3.927826 -0.345172,-1.046849 -0.368612,-2.466028 -0.05701,-3.45164 0.432993,-1.369578 1.457976,-2.679378 2.657986,-3.396574 1.133793,-0.677622 2.835786,-0.949292 4.195245,-0.669641 2.032564,0.418114 3.901322,2.230036 4.440979,4.305913 0.236516,0.909795 0.15733,2.505157 -0.167644,3.377518 -0.53927,1.447619 -1.548912,2.57677 -2.902341,3.245885 -1.268303,0.62703 -2.561574,0.799721 -3.867012,0.516365 l 0,0 z m 2.414989,-0.388474 c 1.735215,-0.44767 3.499047,-2.035139 4.145624,-3.73111 0.139586,-0.366135 0.181453,-0.717237 0.177207,-1.486122 -0.0062,-1.126328 -0.210887,-1.812172 -0.859346,-2.879649 -0.944541,-1.554884 -2.206659,-2.420243 -3.90548,-2.677755 -2.701243,-0.409463 -5.475631,1.590203 -6.064848,4.371296 -0.189835,0.896022 -0.177724,1.594549 0.04258,2.455942 0.269325,1.053052 0.616659,1.662515 1.386071,2.432121 1.38115,1.381501 3.335889,1.964774 5.078188,1.515277 l 0,0 z"
     id="path3003"
     inkscape:connector-curvature="0"
     transform="scale(0.125,0.125)" />
  <path
     style="fill:#f6db40;fill-opacity:1;stroke:none"
     d="m 28.332297,56.956501 c -1.980305,-0.418531 -3.708582,-1.983365 -4.321173,-3.91252 -0.492732,-1.551698 -0.386231,-2.958106 0.334348,-4.415282 0.669328,-1.353535 1.798418,-2.363093 3.245976,-2.902341 0.869559,-0.32393 2.468755,-0.404206 3.369217,-0.169127 2.066122,0.539393 3.738863,2.212134 4.278255,4.278256 0.23508,0.900462 0.154803,2.499658 -0.169126,3.369217 -0.53927,1.447619 -1.548912,2.57677 -2.902341,3.245885 -1.282681,0.634138 -2.480695,0.792173 -3.835156,0.505912 z m 2.366685,-0.334658 c 1.115911,-0.23932 2.293349,-0.986793 3.079492,-1.954955 1.871332,-2.304611 1.710036,-5.205489 -0.408315,-7.34348 -1.16383,-1.17462 -2.440709,-1.685236 -3.983194,-1.592855 -2.027821,0.121448 -3.837632,1.345696 -4.709558,3.185783 -0.874492,1.845502 -0.817347,3.650148 0.162026,5.11677 0.786643,1.178008 2.272636,2.246647 3.555742,2.557081 0.651425,0.157607 1.652389,0.171361 2.303807,0.03166 l 0,0 z"
     id="path3005"
     inkscape:connector-curvature="0"
     transform="scale(0.125,0.125)" />
</svg>
