<?xml version="1.0" encoding="utf-8"?>
<!-- Generator: Adobe Illustrator 24.0.1, SVG Export Plug-In . SVG Version: 6.00 Build 0)  -->
<svg version="1.1"
	 id="svg117" xmlns:cc="http://creativecommons.org/ns#" xmlns:dc="http://purl.org/dc/elements/1.1/" xmlns:inkscape="http://www.inkscape.org/namespaces/inkscape" xmlns:rdf="http://www.w3.org/1999/02/22-rdf-syntax-ns#" xmlns:sodipodi="http://sodipodi.sourceforge.net/DTD/sodipodi-0.dtd" xmlns:svg="http://www.w3.org/2000/svg"
	 xmlns="http://www.w3.org/2000/svg" xmlns:xlink="http://www.w3.org/1999/xlink" x="0px" y="0px" viewBox="0 0 40 40"
	 style="enable-background:new 0 0 40 40;" xml:space="preserve">
<style type="text/css">
	.st0{fill:#4691FF;}
	.st1{fill:#8AB9FF;}
	.st2{fill:#FFFFFF;}
	.st3{fill:#99F1FF;}
	.st4{fill:#CCF8FF;}
</style>
<sodipodi:namedview  bordercolor="#666666" borderopacity="1" gridtolerance="10" guidetolerance="10" id="namedview119" inkscape:current-layer="Extensions/Software/Video-Sensing-Block" inkscape:cx="14.467069" inkscape:cy="6.5903056" inkscape:document-rotation="0" inkscape:pageopacity="0" inkscape:pageshadow="2" inkscape:snap-smooth-nodes="false" inkscape:window-height="907" inkscape:window-maximized="0" inkscape:window-width="1600" inkscape:window-x="571" inkscape:window-y="96" inkscape:zoom="7.04" objecttolerance="10" pagecolor="#ffffff" showgrid="false">
	</sodipodi:namedview>
<title  id="title104">Extensions/Software/Video-Sensing-Block</title>
<desc  id="desc106">Created with Sketch.</desc>
<path class="st0" d="M14.3,37.8h-2.9c-0.4,0-0.8-0.4-0.8-0.8l-0.1-5l-0.1-10.8c0-0.2,0-0.5,0.1-0.7c0.1-0.7,0.5-1.2,0.9-1.7
	c0.6-0.6,1.4-0.9,2.2-0.9h1l-0.5,3.7v0l-1.3,10.4l-0.4,3.4c0,0.3,0.1,0.7,0.5,0.8l1.7,0.7C14.9,37.2,14.8,37.8,14.3,37.8z"/>
<path class="st0" d="M36.6,16.9l-0.4,0.8c-0.4,0.5-1,0.8-1.7,0.9l-8.4,0.5l-4.1,0.2L21.5,20c-1.1,1.4-2.2,1.6-4,1.6h-3.4l0.3-2.1
	l0.2-1.2l0-0.3h0.2c1.7,0,3.1-1.4,3.1-3.1l-1.5-1.8l-5-6.1l-0.6-0.8l1.5-0.6L12.7,6l5.5,5.8h0l3.6,3.8c0.6,0.7,1.6,1.1,2.5,1.1
	l1.8,0L36.6,16.9z"/>
<path class="st1" d="M12.7,6l0,0.3c0,0.3-0.2,0.5-0.5,0.5h-0.4c-0.1,0-0.3,0-0.4,0.1l-0.6-0.8l1.5-0.6L12.7,6z"/>
<g>
	<path class="st0" d="M14.6,18l-2.2,3.2c-0.5-0.1-1.3-0.3-1.9-0.7c-0.3-0.2-0.6-0.4-0.8-0.6l-4.1-5.8c-0.7-0.9-0.7-2.1-0.1-2.9
		l3.1-4.4l3.3-4.6c0.1-0.1,0.3-0.1,0.3,0.1l0.1,3.2c0,0.3-0.2,0.5-0.5,0.5h-0.4c-0.3,0-0.5,0.2-0.6,0.4L10,7.9l-1.9,3.6
		c-0.2,0.4-0.1,0.8,0.2,1.1c1.1,0.9,2.7,2.3,2.7,2.3C14.4,17.8,14.6,18,14.6,18L14.6,18z"/>
	<path class="st0" d="M15,18.7l-0.6,0.8l0.2-1.2C14.9,18.6,15,18.7,15,18.7L15,18.7z"/>
	<path class="st0" d="M21.5,12.7l1.2-1.2c0.8-0.8,2-0.8,2.8,0c0.8,0.8,0.8,2,0,2.8l-1.2,1.2c-0.8,0.8-2,0.8-2.8,0
		C20.7,14.7,20.7,13.4,21.5,12.7z"/>
</g>
<path class="st1" d="M25.6,11.4c-0.6-0.6-1.4-0.7-2.1-0.4c0.3,0.1,0.5,0.2,0.7,0.4c0.8,0.8,0.8,2,0,2.8l-1.2,1.2
	c-0.2,0.2-0.4,0.4-0.7,0.4c0.7,0.3,1.6,0.1,2.1-0.4l1.2-1.2C26.4,13.5,26.4,12.2,25.6,11.4z"/>
<path class="st2" d="M14.6,18l0.3,2l-0.8,1.6v0l-1.3,10.4h-2.3l-0.1-10.8c0-0.2,0-0.5,0.1-0.7c-0.2-0.1-0.4-0.2-0.5-0.3
	c-0.1-0.1-0.2-0.2-0.3-0.3l-4.1-5.8c-0.7-0.9-0.7-2.1-0.1-2.9l3.1-4.4l1.2,1L10,7.9l-1.9,3.6c-0.2,0.4-0.1,0.8,0.2,1.1
	c1.1,0.9,2.7,2.3,2.7,2.3C14.4,17.8,14.6,18,14.6,18L14.6,18z"/>
<path class="st3" d="M26.1,19.1L26.1,19.1l-4.1,0.2L21.5,20c-1.1,1.4-2.2,1.6-4,1.6h-3.4l0.5-3.7h0.2c1.7,0,3.1-1.4,3.1-3.1
	l-1.5-1.8l0,0l1.8-1.3h0l3.6,3.8c0.6,0.7,1.6,1.1,2.5,1.1l1.8,0L26.1,19.1z"/>
<path class="st4" d="M22.1,19.4L21.5,20c-1.1,1.4-2.2,1.6-4,1.6h-1.8c0.9,0,1.6-0.1,2.3-0.3c0.6-0.2,1.2-0.6,1.7-1.3
	c0.4-0.4,0.9-0.6,1.4-0.7L22.1,19.4z"/>
</svg>
