<?xml version="1.0" encoding="UTF-8" standalone="no"?>
<svg
   xmlns:dc="http://purl.org/dc/elements/1.1/"
   xmlns:cc="http://creativecommons.org/ns#"
   xmlns:rdf="http://www.w3.org/1999/02/22-rdf-syntax-ns#"
   xmlns:svg="http://www.w3.org/2000/svg"
   xmlns="http://www.w3.org/2000/svg"
   xmlns:sodipodi="http://sodipodi.sourceforge.net/DTD/sodipodi-0.dtd"
   xmlns:inkscape="http://www.inkscape.org/namespaces/inkscape"
   version="1.1"
   id="downloadSvg"
   x="0px"
   y="0px"
   viewBox="0 0 1200 1200"
   enable-background="new 0 0 1200 1200"
   xml:space="preserve"
   height="512"
   width="512"
   sodipodi:docname="blue-progress-bar.svg"
   inkscape:version="0.92.4 (5da689c313, 2019-01-14)"><metadata
   id="metadata17"><rdf:RDF><cc:Work
       rdf:about=""><dc:format>image/svg+xml</dc:format><dc:type
         rdf:resource="http://purl.org/dc/dcmitype/StillImage" /></cc:Work></rdf:RDF></metadata><defs
   id="defs15">
	
	
	
	
</defs><sodipodi:namedview
   pagecolor="#ffffff"
   bordercolor="#666666"
   borderopacity="1"
   objecttolerance="10"
   gridtolerance="10"
   guidetolerance="10"
   inkscape:pageopacity="0"
   inkscape:pageshadow="2"
   inkscape:window-width="1920"
   inkscape:window-height="1080"
   id="namedview13"
   showgrid="false"
   inkscape:zoom="1.3037281"
   inkscape:cx="235.29657"
   inkscape:cy="154.01093"
   inkscape:window-x="230"
   inkscape:window-y="61"
   inkscape:window-maximized="0"
   inkscape:current-layer="downloadSvg" />
<path
   inkscape:connector-curvature="0"
   id="path2"
   style="fill:#5094fc"
   d="m 751.762,149.069 c 3.471,4.432 10.932,5.618 14.084,3.318 1.793,-1.229 2.227,-4.026 2.328,-5.176 0.318,-3.34 -0.838,-6.506 -2.935,-8.56 l -11.135,-14.46 207.613,8.213 -41.977,91.747 -45.88,88.567 -47.182,-61.303 -586.472,365.564 4.512,-112.974 497.805,-295.109 c 3.802,-2.22 5.871,-5.558 5.683,-9.167 -0.16,-3.102 -2.024,-5.806 -4.83,-7.07 -3.022,-1.359 -6.521,-0.76 -8.994,1.264 l -502.332,297.783 -3.976,2.35 -6.174,154.402 600.7,-374.42 54.065,70.288 58.373,-112.721 52.749,-115.207 -269.399,-10.671 z" /><path
   inkscape:connector-curvature="0"
   id="path4"
   style="fill:#5094fc"
   d="m 901.435,372.183 h -68.221 c -40.458,0 -73.384,32.91 -73.384,73.369 v 575.352 c 0,40.458 32.926,73.369 73.384,73.369 h 68.221 c 40.473,0 73.397,-32.911 73.397,-73.369 V 445.552 c 0,-40.459 -32.925,-73.369 -73.397,-73.369 z m 56.364,73.369 v 575.352 c 0,31.066 -25.291,56.335 -56.365,56.335 h -68.221 c -31.073,0 -56.35,-25.269 -56.35,-56.335 V 445.552 c 0,-31.068 25.277,-56.335 56.35,-56.335 h 68.221 c 31.074,0 56.365,25.267 56.365,56.335 z" /><path
   inkscape:connector-curvature="0"
   id="path6"
   style="fill:#5094fc"
   d="m 637.486,519.159 h -68.249 c -40.459,0 -73.384,32.917 -73.384,73.375 v 428.37 c 0,40.458 32.924,73.369 73.384,73.369 h 68.249 c 40.459,0 73.369,-32.911 73.369,-73.369 v -428.37 c 0,-40.458 -32.909,-73.375 -73.369,-73.375 z m 56.336,73.375 v 428.37 c 0,31.066 -25.275,56.335 -56.335,56.335 h -68.249 c -31.075,0 -56.35,-25.269 -56.35,-56.335 v -428.37 c 0,-31.066 25.275,-56.343 56.35,-56.343 h 68.249 c 31.059,10e-4 56.335,25.277 56.335,56.343 z" /><path
   inkscape:connector-curvature="0"
   id="path8"
   style="fill:#5094fc;stroke-width:0.92841119"
   d="m 348.26363,643.028 h -58.82791 c -42.57502,0 -77.22272,40.197 -77.22272,89.606 v 272.054 c 0,49.394 34.6477,89.585 77.22272,89.585 h 58.82791 c 42.57589,0 77.21152,-40.191 77.21152,-89.585 V 732.634 c 0,-49.408 -34.63563,-89.606 -77.21152,-89.606 z m 62.52911,89.606 v 272.054 c 0,40.002 -28.05467,72.552 -62.52911,72.552 h -58.82791 c -34.48565,0 -62.54117,-32.55 -62.54117,-72.552 V 732.634 c 0,-40.017 28.05466,-72.572 62.54117,-72.572 h 58.82791 c 34.47444,0 62.52911,32.556 62.52911,72.572 z" />
<rect
   style="fill:#5094fc;fill-opacity:1;stroke:none;stroke-width:8.07676411;stroke-linecap:round;stroke-linejoin:round;stroke-miterlimit:4;stroke-dasharray:none;stroke-opacity:1;paint-order:markers fill stroke"
   id="rect4531"
   width="200.33748"
   height="439.24432"
   x="221.89999"
   y="648.45801"
   ry="88.828125" /><rect
   style="fill:#5094fc;fill-opacity:1;stroke:none;stroke-width:9.35525131;stroke-linecap:round;stroke-linejoin:round;stroke-miterlimit:4;stroke-dasharray:none;stroke-opacity:1;paint-order:markers fill stroke"
   id="rect4531-0"
   width="208.45374"
   height="566.36304"
   x="498.31549"
   y="527.83545"
   ry="67.900269" /><rect
   style="fill:#5094fc;fill-opacity:1;stroke:none;stroke-width:10.38045406;stroke-linecap:round;stroke-linejoin:round;stroke-miterlimit:4;stroke-dasharray:none;stroke-opacity:1;paint-order:markers fill stroke"
   id="rect4531-0-7"
   width="208.45374"
   height="697.29523"
   x="763.99347"
   y="386.73373"
   ry="77.503128" /><path
   style="fill:#5094fc;fill-opacity:1;stroke:none;stroke-width:2.34375px;stroke-linecap:butt;stroke-linejoin:miter;stroke-opacity:1"
   d="M 987.78701,116.398 876.66499,344.32601 822.6,274.038 221.9,648.458 228.074,494.056 767.79661,171.61016 718.388,105.727 Z"
   id="path4584"
   inkscape:connector-curvature="0"
   sodipodi:nodetypes="cccccccc" /></svg>