<?xml version="1.0" encoding="iso-8859-1"?>
<!-- Generator: Adobe Illustrator 21.0.2, SVG Export Plug-In . SVG Version: 6.00 Build 0)  -->
<svg version="1.1" id="Layer_1" xmlns="http://www.w3.org/2000/svg" xmlns:xlink="http://www.w3.org/1999/xlink" x="0px" y="0px"
	 viewBox="0 0 100.5 100.5" style="enable-background:new 0 0 100.5 100.5;" xml:space="preserve">
<g>
	<path d="M67.146,60.672c-2.883-2.355-6.982-2.25-9.742,0.047L39.142,46.19c0.228-0.872,0.308-1.785,0.215-2.709
		c-0.206-2.036-1.192-3.87-2.778-5.164c-3.272-2.671-8.108-2.181-10.779,1.091c-2.399,2.939-2.241,7.134,0.186,9.895L14.668,62.196
		c-1.572-1.246-3.532-1.83-5.526-1.62c-2.036,0.205-3.87,1.192-5.164,2.777c-2.671,3.273-2.181,8.108,1.091,10.779
		c1.381,1.127,3.071,1.727,4.83,1.727c0.261,0,0.523-0.013,0.786-0.04c2.036-0.206,3.87-1.192,5.164-2.778
		c1.294-1.585,1.893-3.579,1.687-5.615c-0.105-1.04-0.417-2.027-0.906-2.917l11.757-13.393c1.06,0.517,2.199,0.794,3.342,0.794
		c2.224,0,4.43-0.961,5.942-2.813c0.041-0.05,0.074-0.103,0.113-0.154L55.515,63.05c-1.655,3.155-0.923,7.153,1.942,9.492
		c1.42,1.158,3.133,1.722,4.837,1.722c2.224,0,4.43-0.96,5.942-2.813c1.294-1.585,1.893-3.579,1.687-5.615
		C69.718,63.8,68.73,61.966,67.146,60.672z M13.524,71.145c-0.787,0.965-1.903,1.565-3.142,1.69
		c-1.234,0.129-2.451-0.239-3.417-1.026c-1.991-1.625-2.288-4.566-0.664-6.559c1.625-1.991,4.568-2.288,6.558-0.663
		c0.192,0.157,0.358,0.336,0.521,0.517c0.083,0.162,0.195,0.313,0.341,0.441c0.449,0.643,0.747,1.382,0.829,2.184
		C14.676,68.967,14.312,70.18,13.524,71.145z M35.346,47.2c-0.787,0.964-1.903,1.564-3.141,1.69
		c-1.239,0.125-2.452-0.239-3.417-1.026c-1.991-1.625-2.289-4.567-0.664-6.558c1.625-1.992,4.568-2.289,6.558-0.664
		c0.965,0.787,1.565,1.903,1.69,3.142C36.498,45.022,36.133,46.235,35.346,47.2z M65.912,69.554c-1.624,1.99-4.566,2.29-6.558,0.664
		c-1.991-1.625-2.289-4.567-0.664-6.559c0.92-1.127,2.262-1.711,3.615-1.711c1.036,0,2.079,0.343,2.943,1.048
		C67.239,64.621,67.537,67.562,65.912,69.554z"/>
	<path d="M74.066,54.22c-0.648-0.516-1.592-0.406-2.107,0.24l-2.274,2.861c-0.516,0.648-0.408,1.593,0.24,2.107
		c0.276,0.22,0.605,0.326,0.933,0.326c0.441,0,0.879-0.194,1.175-0.566l2.274-2.861C74.822,55.679,74.715,54.734,74.066,54.22z"/>
	<path d="M83.519,42.34c-0.646-0.515-1.592-0.408-2.107,0.24l-4.726,5.94c-0.516,0.648-0.408,1.592,0.24,2.108
		c0.275,0.22,0.605,0.326,0.933,0.326c0.441,0,0.879-0.194,1.175-0.566l4.726-5.94C84.274,43.8,84.167,42.856,83.519,42.34z"/>
	<path d="M90.521,33.539c-0.646-0.516-1.592-0.407-2.107,0.24l-2.276,2.861c-0.516,0.648-0.408,1.592,0.24,2.108
		c0.275,0.22,0.605,0.326,0.933,0.326c0.441,0,0.879-0.194,1.175-0.566l2.276-2.861C91.276,34.999,91.169,34.055,90.521,33.539z"/>
	<path d="M97.114,24.403c-0.405-0.288-0.926-0.355-1.389-0.183l-11.233,4.162c-0.776,0.288-1.173,1.151-0.885,1.928
		c0.287,0.776,1.149,1.173,1.928,0.886l9.175-3.399l-0.169,9.783c-0.014,0.829,0.646,1.511,1.475,1.526c0.009,0,0.018,0,0.026,0
		c0.816,0,1.484-0.655,1.499-1.474l0.206-11.978C97.755,25.157,97.519,24.689,97.114,24.403z"/>
</g>
</svg>
