<?xml version="1.0" standalone="no"?>
<svg version="1.1" id="downloadSvg" xmlns="http://www.w3.org/2000/svg" xmlns:xlink="http://www.w3.org/1999/xlink" x="0px" y="0px" viewBox="0 0 1200 1200" enable-background="new 0 0 1200 1200" xml:space="preserve" height="512" width="512">
<g>
	<path fill="#008B89" d="M751.762,149.069c3.471,4.432,10.932,5.618,14.084,3.318c1.793-1.229,2.227-4.026,2.328-5.176&#10;&#9;&#9;c0.318-3.34-0.838-6.506-2.935-8.56l-11.135-14.46l207.613,8.213l-41.977,91.747l-45.88,88.567l-47.182-61.303L240.206,616.979&#10;&#9;&#9;l4.512-112.974l497.805-295.109c3.802-2.22,5.871-5.558,5.683-9.167c-0.16-3.102-2.024-5.806-4.83-7.07&#10;&#9;&#9;c-3.022-1.359-6.521-0.76-8.994,1.264L232.05,491.706l-3.976,2.35L221.9,648.458l600.7-374.42l54.065,70.288l58.373-112.721&#10;&#9;&#9;l52.749-115.207l-269.399-10.671L751.762,149.069z" style="fill: rgb(80, 148, 252);"/>
	<path fill="#008B89" d="M901.435,372.183h-68.221c-40.458,0-73.384,32.91-73.384,73.369v575.352&#10;&#9;&#9;c0,40.458,32.926,73.369,73.384,73.369h68.221c40.473,0,73.397-32.911,73.397-73.369V445.552&#10;&#9;&#9;C974.832,405.093,941.907,372.183,901.435,372.183z M957.799,445.552v575.352c0,31.066-25.291,56.335-56.365,56.335h-68.221&#10;&#9;&#9;c-31.073,0-56.35-25.269-56.35-56.335V445.552c0-31.068,25.277-56.335,56.35-56.335h68.221&#10;&#9;&#9;C932.508,389.217,957.799,414.484,957.799,445.552z" style="fill: rgb(80, 148, 252);"/>
	<path fill="#008B89" d="M637.486,519.159h-68.249c-40.459,0-73.384,32.917-73.384,73.375v428.37&#10;&#9;&#9;c0,40.458,32.924,73.369,73.384,73.369h68.249c40.459,0,73.369-32.911,73.369-73.369v-428.37&#10;&#9;&#9;C710.855,552.076,677.946,519.159,637.486,519.159z M693.822,592.534v428.37c0,31.066-25.275,56.335-56.335,56.335h-68.249&#10;&#9;&#9;c-31.075,0-56.35-25.269-56.35-56.335v-428.37c0-31.066,25.275-56.343,56.35-56.343h68.249&#10;&#9;&#9;C668.546,536.192,693.822,561.468,693.822,592.534z" style="fill: rgb(80, 148, 252);"/>
	<path fill="#008B89" d="M370.054,643.028h-68.25c-49.394,0-89.591,40.197-89.591,89.606v272.054&#10;&#9;&#9;c0,49.394,40.197,89.585,89.591,89.585h68.25c49.395,0,89.578-40.191,89.578-89.585V732.634&#10;&#9;&#9;C459.632,683.226,419.449,643.028,370.054,643.028z M442.598,732.634v272.054c0,40.002-32.548,72.552-72.544,72.552h-68.25&#10;&#9;&#9;c-40.009,0-72.558-32.55-72.558-72.552V732.634c0-40.017,32.548-72.572,72.558-72.572h68.25&#10;&#9;&#9;C410.05,660.062,442.598,692.618,442.598,732.634z" style="fill: rgb(80, 148, 252);"/>
</g>
</svg>