<?xml version="1.0" encoding="utf-8"?>
<!-- Generator: Adobe Illustrator 24.0.1, SVG Export Plug-In . SVG Version: 6.00 Build 0)  -->
<svg version="1.1"
	 id="svg117" xmlns:cc="http://creativecommons.org/ns#" xmlns:dc="http://purl.org/dc/elements/1.1/" xmlns:inkscape="http://www.inkscape.org/namespaces/inkscape" xmlns:rdf="http://www.w3.org/1999/02/22-rdf-syntax-ns#" xmlns:sodipodi="http://sodipodi.sourceforge.net/DTD/sodipodi-0.dtd" xmlns:svg="http://www.w3.org/2000/svg"
	 xmlns="http://www.w3.org/2000/svg" xmlns:xlink="http://www.w3.org/1999/xlink" x="0px" y="0px" viewBox="0 0 40 40"
	 style="enable-background:new 0 0 40 40;" xml:space="preserve">
<style type="text/css">
	
		.st0{opacity:0.25;fill:#FFFFFF;stroke:#000000;stroke-linecap:round;stroke-linejoin:round;stroke-opacity:0.15;enable-background:new    ;}
	
		.st1{opacity:0.5;fill:#FFFFFF;stroke:#000000;stroke-linecap:round;stroke-linejoin:round;stroke-opacity:0.15;enable-background:new    ;}
	
		.st2{opacity:0.75;fill:#FFFFFF;stroke:#000000;stroke-linecap:round;stroke-linejoin:round;stroke-opacity:0.15;enable-background:new    ;}
	.st3{fill:#FFFFFF;stroke:#000000;stroke-linecap:round;stroke-linejoin:round;stroke-opacity:0.15;}
	.st4{fill:#478FFD;stroke:#3C79CA;stroke-width:0.75;stroke-miterlimit:10;}
</style>
<sodipodi:namedview  bordercolor="#666666" borderopacity="1" gridtolerance="10" guidetolerance="10" id="namedview119" inkscape:current-layer="Extensions/Software/Video-Sensing-Block" inkscape:cx="14.467069" inkscape:cy="6.5903056" inkscape:document-rotation="0" inkscape:pageopacity="0" inkscape:pageshadow="2" inkscape:snap-smooth-nodes="false" inkscape:window-height="907" inkscape:window-maximized="0" inkscape:window-width="1600" inkscape:window-x="571" inkscape:window-y="96" inkscape:zoom="7.04" objecttolerance="10" pagecolor="#ffffff" showgrid="false">
	</sodipodi:namedview>
<title  id="title104">Extensions/Software/Video-Sensing-Block</title>
<desc  id="desc106">Created with Sketch.</desc>
<g id="Extensions_x2F_Software_x2F_Video-Sensing-Block">
	<circle id="Oval-Copy" class="st0" cx="27.4" cy="12.4" r="2.4"/>
	<circle id="circle109" class="st1" cx="24.3" cy="11.2" r="2.4"/>
	<circle id="circle111" class="st2" cx="21.1" cy="10.7" r="2.4"/>
	<circle id="Oval" class="st3" cx="18.4" cy="10.8" r="2.4"/>
</g>
<g id="Extensions_x2F_Software_x2F_Video-Sensing-Block_1_">
	<circle id="Oval-Copy_1_" class="st0" cx="32.1" cy="16.5" r="2.4"/>
	<circle id="circle109_1_" class="st1" cx="28.7" cy="16.2" r="2.4"/>
	<circle id="circle111_1_" class="st2" cx="25.5" cy="16.5" r="2.4"/>
	<circle id="Oval_1_" class="st3" cx="23" cy="17.3" r="2.4"/>
</g>
<g>
	<path class="st4" d="M26.2,30.5c-2.5-0.8-3.9-0.1-4.6-0.4c-0.4-0.2-0.5-1.1,0.3-1.7c0.8-0.6,1.5-0.6,2.8-0.8
		c1.4-0.2,2.5-0.2,2.4-0.8c0,0-0.5-1.5-0.7-1.9c-0.4-0.6-3.4-4.1-4.6-5.9c-1-1.5-0.2-2.4,0.3-2.1c1.1,0.6,6.4,6.6,6.4,6.6l-1.1-1.9
		c-0.3-0.7,1.8-1.1,2.2-0.7l1.3,1.7c0,0-0.7-1.2-0.9-1.7c-0.1-0.3,1.5-0.5,2-0.1c0.4,0.3,1.2,1,1.2,1s-0.8-1-0.8-1.1
		c0-0.2,1.4-0.1,2,0.4c1.9,1.4,2.3,3.5,2.8,5.8c0.4,1.7-0.1,3.1-0.3,3.7c-0.1,0.3-0.3,0.5-0.6,0.6l-4.8,1.8c-0.2,0.1-0.5,0.1-0.7,0
		C30.2,32.7,28.9,31.3,26.2,30.5z"/>
	<path class="st4" d="M14,24.8c2.4-1,3.8-0.4,4.5-0.8c0.4-0.2,0.4-1.1-0.5-1.7c-0.8-0.6-1.6-0.5-2.9-0.6c-1.4-0.1-2.5,0-2.5-0.6
		c0,0,0.4-1.6,0.6-1.9c0.3-0.6,3.1-4.4,4.1-6.3c0.9-1.6,0-2.4-0.5-2.1C15.8,11.6,11,18,11,18l0.9-2c0.2-0.7-1.8-0.9-2.2-0.5
		l-1.1,1.8c0,0,0.6-1.2,0.7-1.8c0.1-0.3-1.5-0.4-2,0c-0.4,0.3-1.1,1.1-1.1,1.1s0.7-1.1,0.7-1.2c-0.1-0.2-1.4,0.1-2,0.5
		c-1.8,1.5-2,3.7-2.3,6.1c-0.2,1.7,0.3,3.1,0.7,3.7c0.1,0.2,0.4,0.4,0.6,0.5l5,1.4c0.2,0.1,0.5,0,0.7-0.1
		C10.2,27.4,11.4,25.9,14,24.8z"/>
</g>
</svg>
