<?xml version="1.0" encoding="utf-8"?>
<!-- Generator: Adobe Illustrator 24.0.1, SVG Export Plug-In . SVG Version: 6.00 Build 0)  -->
<svg version="1.1"
	 id="svg117" xmlns:cc="http://creativecommons.org/ns#" xmlns:dc="http://purl.org/dc/elements/1.1/" xmlns:inkscape="http://www.inkscape.org/namespaces/inkscape" xmlns:rdf="http://www.w3.org/1999/02/22-rdf-syntax-ns#" xmlns:sodipodi="http://sodipodi.sourceforge.net/DTD/sodipodi-0.dtd" xmlns:svg="http://www.w3.org/2000/svg"
	 xmlns="http://www.w3.org/2000/svg" xmlns:xlink="http://www.w3.org/1999/xlink" x="0px" y="0px" viewBox="0 0 40 40"
	 style="enable-background:new 0 0 40 40;" xml:space="preserve">
<style type="text/css">
	.st0{opacity:0.25;fill:#0EBD8C;enable-background:new    ;}
	.st1{opacity:0.5;fill:#0EBD8C;enable-background:new    ;}
	.st2{opacity:0.75;fill:#0EBD8C;enable-background:new    ;}
	.st3{fill:#0EBD8C;}
	.st4{fill:#F15A83;}
</style>
<circle id="Oval-Copy" class="st0" cx="32.4" cy="8.4" r="4.7"/>
<circle id="Oval-Copy_1_" class="st1" cx="27.7" cy="8.6" r="4.7"/>
<circle id="Oval-Copy_2_" class="st2" cx="23" cy="8.9" r="4.7"/>
<circle id="Oval" class="st3" cx="18.3" cy="9.2" r="4.7"/>
<sodipodi:namedview  bordercolor="#666666" borderopacity="1" gridtolerance="10" guidetolerance="10" id="namedview119" inkscape:current-layer="Extensions/Software/Video-Sensing-Block" inkscape:cx="14.467069" inkscape:cy="6.5903056" inkscape:document-rotation="0" inkscape:pageopacity="0" inkscape:pageshadow="2" inkscape:snap-smooth-nodes="false" inkscape:window-height="907" inkscape:window-maximized="0" inkscape:window-width="1600" inkscape:window-x="571" inkscape:window-y="96" inkscape:zoom="7.04" objecttolerance="10" pagecolor="#ffffff" showgrid="false">
	</sodipodi:namedview>
<title  id="title104">Extensions/Software/Video-Sensing-Block</title>
<desc  id="desc106">Created with Sketch.</desc>
<g>
	<g>
		<path class="st4" d="M5.5,24.8c-0.9-3.7-2.8-4.9-2.9-6c-0.1-0.6,1-1.4,2.4-0.9s1.9,1.4,3.1,2.9c1.3,1.5,2.1,2.9,2.8,2.4
			c0,0,1.5-1.8,1.8-2.3c0.4-0.9,2.5-7.4,3.8-10.2c1.2-2.5,2.9-2.1,2.9-1.3c0.1,1.8-3.4,13-3.4,13s3.6-7.4,4.8-9.9
			c1.2-2.4,3.4-1.9,3.2-1.2c-1.1,3.2-5.1,13.3-5.1,13.3s4.4-7.7,5.2-9c1-1.6,2.9-1.7,2.9-0.7c0,0.7-5.3,11.9-5.3,11.9
			s3.4-5.5,4.4-6.8c0.9-1.2,2.9-1.5,2.5-0.3c-0.3,1-5.3,10.2-5.8,11c-0.9,1.9-2.6,3.5-4.3,5.1c-1.8,1.7-3.9,2.2-4.9,2.4
			c-0.4,0.1-0.8,0-1.1-0.3l-5.9-4.6c-0.3-0.2-0.5-0.6-0.5-0.9C5.8,31.6,6.5,28.8,5.5,24.8z"/>
	</g>
</g>
</svg>
