<?xml version="1.0" encoding="utf-8"?>
<!-- Generator: Adobe Illustrator 24.0.1, SVG Export Plug-In . SVG Version: 6.00 Build 0)  -->
<svg version="1.1"
	 id="svg117" xmlns:cc="http://creativecommons.org/ns#" xmlns:dc="http://purl.org/dc/elements/1.1/" xmlns:inkscape="http://www.inkscape.org/namespaces/inkscape" xmlns:rdf="http://www.w3.org/1999/02/22-rdf-syntax-ns#" xmlns:sodipodi="http://sodipodi.sourceforge.net/DTD/sodipodi-0.dtd" xmlns:svg="http://www.w3.org/2000/svg"
	 xmlns="http://www.w3.org/2000/svg" xmlns:xlink="http://www.w3.org/1999/xlink" x="0px" y="0px" viewBox="0 0 40 40"
	 style="enable-background:new 0 0 40 40;" xml:space="preserve">
<style type="text/css">
	.st0{fill:#56CBF5;}
	.st1{opacity:0.57;fill:#EE4097;enable-background:new    ;}
	.st2{fill:#4691FF;}
	.st3{fill:#37527B;}
	.st4{opacity:0.49;fill:#E0300E;enable-background:new    ;}
	.st5{opacity:0.49;fill:#B20D24;enable-background:new    ;}
	.st6{fill:#EDEDEB;}
	.st7{fill:#CECECC;}
	.st8{fill:#FFFFFF;}
</style>
<sodipodi:namedview  bordercolor="#666666" borderopacity="1" gridtolerance="10" guidetolerance="10" id="namedview119" inkscape:current-layer="Extensions/Software/Video-Sensing-Block" inkscape:cx="14.467069" inkscape:cy="6.5903056" inkscape:document-rotation="0" inkscape:pageopacity="0" inkscape:pageshadow="2" inkscape:snap-smooth-nodes="false" inkscape:window-height="907" inkscape:window-maximized="0" inkscape:window-width="1600" inkscape:window-x="571" inkscape:window-y="96" inkscape:zoom="7.04" objecttolerance="10" pagecolor="#ffffff" showgrid="false">
	</sodipodi:namedview>
<title  id="title104">Extensions/Software/Video-Sensing-Block</title>
<desc  id="desc106">Created with Sketch.</desc>
<path class="st0" d="M9.8,22.9l-1.1-3.3c-0.5-1.6-0.8-3.2-0.8-4.9c0-6.6,5.3-11.9,11.9-11.9s11.9,5.3,11.9,11.9
	c0,1.7-0.3,3.3-0.8,4.9l-1.1,3.3H9.8z"/>
<path class="st1" d="M19.8,5.1c-2.4,0-4.8,0.9-6.6,2.4c1.2-0.5,2.5-0.8,3.9-0.8c5.8,0,10.4,4.6,10.4,10.4c0,1.5-0.3,2.9-0.7,4.3
	l-0.4,1.2h2.2l1-2.9c0.4-1.4,0.7-2.8,0.7-4.3C30.2,9.7,25.6,5.1,19.8,5.1z"/>
<path class="st2" d="M26.2,32.9l-3.5,2.9c-0.8,0.7-1.8,1-2.9,1s-2.1-0.3-2.9-1l-3.5-2.9c-1.1-1-1.8-2.4-1.9-3.8l-0.4-6.4l0.7-7
	c0.3-2.3,2.1-3.9,4.4-3.9h7.4c2.3,0,4.1,1.7,4.4,3.9l0.7,7L28.2,29C28.1,30.5,27.4,31.9,26.2,32.9z"/>
<path class="st2" d="M28,19.9h1.7c0.6,0,1.1,0.5,1.1,1.1v2.7c0,1.5-1.2,2.7-2.7,2.7L28,19.9L28,19.9z"/>
<path class="st2" d="M11.6,19.9H9.9c-0.6,0-1.1,0.5-1.1,1.1v2.7c0,1.5,1.2,2.7,2.7,2.7L11.6,19.9L11.6,19.9z"/>
<path class="st3" d="M21.5,27h-1.7v-6l0.1,0.2C20.1,23.2,20.8,25.3,21.5,27z"/>
<path class="st4" d="M16.6,30.2l2.2-1.1l1.1,0.5l1.1-0.5l2.2,1.1L21,31.4h-2.2L16.6,30.2z"/>
<path class="st5" d="M23.1,30.2h-0.5C22.7,30.2,22.9,30.3,23.1,30.2L23.1,30.2z"/>
<path class="st5" d="M22.6,30.2h-6l2.1,1C19.8,30.7,21.2,30.2,22.6,30.2z"/>
<path class="st6" d="M21.5,21l0.7-0.5c0.4-0.3,1.1-0.6,1.8-0.6c0.7,0,1.3,0.2,1.8,0.6l0.7,0.5l-0.7,0.5c-0.4,0.3-1.1,0.6-1.8,0.6
	c-0.7,0-1.3-0.2-1.8-0.6L21.5,21z"/>
<path class="st7" d="M25.7,20.5c-0.4-0.3-1.1-0.5-1.7-0.5c-0.7,0-1.3,0.2-1.8,0.6L21.5,21l0.2,0.2C22.9,20.7,24.3,20.5,25.7,20.5z"
	/>
<path class="st6" d="M13.3,21l0.7-0.5c0.4-0.3,1.1-0.6,1.8-0.6c0.7,0,1.3,0.2,1.8,0.6l0.7,0.5l-0.7,0.5c-0.4,0.3-1.1,0.6-1.8,0.6
	c-0.7,0-1.3-0.2-1.8-0.6L13.3,21z"/>
<path class="st7" d="M17.4,20.5c-0.5-0.3-1.1-0.5-1.7-0.5c-0.7,0-1.3,0.2-1.8,0.6L13.3,21l0.3,0.2C14.7,20.7,16.1,20.5,17.4,20.5
	L17.4,20.5z"/>
<path class="st3" d="M27.8,15.6c-0.1-1.2-0.8-2.4-1.7-3.1v0.1l0.8,7.6l-0.4,7c-0.1,1.7-0.9,3.1-2.1,4.2l-3.8,3.1
	c-1,0.9-2.4,1.3-3.8,1.1l0.1,0.1c1.7,1.4,4.1,1.4,5.8,0l3.5-2.9c1.1-1,1.8-2.4,1.9-3.8l0.4-6.4L27.8,15.6z"/>
<path class="st8" d="M2.3,6.4h5.6V5.2H1.6C1.3,5.2,1,5.5,1,5.8v6.3h1.3V6.4z"/>
<path class="st8" d="M37.4,12.1h1.3V5.8c0-0.3-0.3-0.6-0.6-0.6h-6.3v1.3h5.6V12.1z"/>
<path class="st8" d="M37.4,36.5h-5.6v1.3H38c0.3,0,0.6-0.3,0.6-0.6v-6.3h-1.3v5.6H37.4z"/>
<path class="st8" d="M1.6,37.8h6.3v-1.3H2.3v-5.6H1v6.3C1,37.5,1.3,37.8,1.6,37.8z"/>
</svg>
