<?xml version="1.0" encoding="utf-8"?>
<!-- Generator: Adobe Illustrator 24.0.1, SVG Export Plug-In . SVG Version: 6.00 Build 0)  -->
<svg version="1.1"
	 id="svg117" xmlns:cc="http://creativecommons.org/ns#" xmlns:dc="http://purl.org/dc/elements/1.1/" xmlns:inkscape="http://www.inkscape.org/namespaces/inkscape" xmlns:rdf="http://www.w3.org/1999/02/22-rdf-syntax-ns#" xmlns:sodipodi="http://sodipodi.sourceforge.net/DTD/sodipodi-0.dtd" xmlns:svg="http://www.w3.org/2000/svg"
	 xmlns="http://www.w3.org/2000/svg" xmlns:xlink="http://www.w3.org/1999/xlink" x="0px" y="0px" viewBox="0 0 40 40"
	 style="enable-background:new 0 0 40 40;" xml:space="preserve">
<style type="text/css">
	.st0{fill:#0B64E5;}
	.st1{fill:#4692FF;}
	.st2{fill:#FDA22E;}
	.st3{fill:#E50023;}
	.st4{fill:#171526;}
</style>
<sodipodi:namedview  bordercolor="#666666" borderopacity="1" gridtolerance="10" guidetolerance="10" id="namedview119" inkscape:current-layer="Extensions/Software/Video-Sensing-Block" inkscape:cx="14.467069" inkscape:cy="6.5903056" inkscape:document-rotation="0" inkscape:pageopacity="0" inkscape:pageshadow="2" inkscape:snap-smooth-nodes="false" inkscape:window-height="907" inkscape:window-maximized="0" inkscape:window-width="1600" inkscape:window-x="571" inkscape:window-y="96" inkscape:zoom="7.04" objecttolerance="10" pagecolor="#ffffff" showgrid="false">
	</sodipodi:namedview>
<title  id="title104">Extensions/Software/Video-Sensing-Block</title>
<desc  id="desc106">Created with Sketch.</desc>
<g>
	<circle class="st0" cx="36.3" cy="20.6" r="1.2"/>
	<circle class="st0" cx="36.3" cy="26.1" r="1.2"/>
	<circle class="st0" cx="36.3" cy="31.5" r="1.2"/>
	<circle class="st0" cx="36.3" cy="37" r="1.2"/>
	<circle class="st0" cx="36.3" cy="15.2" r="1.2"/>
	<circle class="st0" cx="36.3" cy="9.8" r="1.2"/>
	<circle class="st0" cx="36.3" cy="4.3" r="1.2"/>
</g>
<circle class="st1" cx="4.9" cy="4.9" r="2.4"/>
<circle class="st1" cx="4.9" cy="12.8" r="2.4"/>
<circle class="st1" cx="4.9" cy="20.6" r="2.4"/>
<circle class="st1" cx="4.9" cy="28.5" r="2.4"/>
<circle class="st2" cx="15.2" cy="12.8" r="2.4"/>
<circle class="st2" cx="15.2" cy="20.6" r="2.4"/>
<circle class="st2" cx="15.2" cy="28.5" r="2.4"/>
<circle class="st1" cx="4.9" cy="36.4" r="2.4"/>
<path class="st3" d="M23,31.5c-0.7,0-1.2-0.5-1.2-1.2V10.4c0-0.7,0.5-1.2,1.2-1.2s1.2,0.5,1.2,1.2v19.9C24.2,31,23.7,31.5,23,31.5z"
	/>
<path class="st4" d="M26,12.2c0.2,0,0.3-0.1,0.4-0.2l7.1-7.1h1.1c0.3,0.7,0.9,1.2,1.7,1.2c1,0,1.8-0.8,1.8-1.8s-0.8-1.8-1.8-1.8
	c-0.8,0-1.5,0.5-1.7,1.2h-1.3c-0.2,0-0.3,0.1-0.4,0.2L25.8,11h-1v-0.6c0-1-0.8-1.8-1.8-1.8s-1.8,0.8-1.8,1.8v1.8h-3.1
	c-0.3-1.4-1.5-2.4-3-2.4c-0.8,0-1.4,0.3-2,0.8L7.6,6.3c0.2-0.4,0.3-0.8,0.3-1.3c0-1.7-1.4-3-3-3s-3,1.4-3,3s1.4,3,3,3
	c0.8,0,1.4-0.3,2-0.8l5.6,4.3c-0.1,0.2-0.2,0.5-0.3,0.7H7.9c-0.3-1.4-1.5-2.4-3-2.4c-1.7,0-3,1.4-3,3s1.4,3,3,3c0.8,0,1.4-0.3,2-0.8
	L9,16.7l-2.2,1.7c-0.5-0.5-1.2-0.8-2-0.8c-1.7,0-3,1.4-3,3c0,1.7,1.4,3,3,3c0.8,0,1.4-0.3,2-0.8L9,24.6l-2.2,1.7
	c-0.5-0.5-1.2-0.8-2-0.8c-1.7,0-3,1.4-3,3c0,1.7,1.4,3,3,3c1.5,0,2.7-1,3-2.4h4.4c0.1,0.3,0.1,0.5,0.3,0.7l-5.6,4.3
	c-0.5-0.5-1.2-0.7-2-0.7c-1.7,0-3,1.4-3,3c0,1.7,1.4,3,3,3s3-1.4,3-3c0-0.5-0.1-0.9-0.3-1.3l5.6-4.3c0.5,0.5,1.2,0.7,2,0.7
	c1.5,0,2.7-1,3-2.4h3.1v1.2c0,1,0.8,1.8,1.8,1.8s1.8-0.8,1.8-1.8h1l7.1,7.1c0.1,0.1,0.3,0.2,0.4,0.2h1.3c0.3,0.7,0.9,1.2,1.7,1.2
	c1,0,1.8-0.8,1.8-1.8c0-1-0.8-1.8-1.8-1.8c-0.8,0-1.5,0.5-1.7,1.2h-1.1l-7.1-7.1c-0.1-0.1-0.3-0.2-0.4-0.2h-1.2v-1.8h2.8l4.7,4.7
	c0.1,0.1,0.3,0.2,0.4,0.2h1.9c0.3,0.7,0.9,1.2,1.7,1.2c1,0,1.8-0.8,1.8-1.8c0-1-0.8-1.8-1.8-1.8c-0.8,0-1.5,0.5-1.7,1.2h-1.7
	l-4.7-4.7c-0.1-0.1-0.3-0.2-0.4-0.2h-3v-1.8H30l2.2,2.2c0.1,0.1,0.3,0.2,0.4,0.2h1.9c0.3,0.7,0.9,1.2,1.7,1.2c1,0,1.8-0.8,1.8-1.8
	s-0.8-1.8-1.8-1.8c-0.8,0-1.5,0.5-1.7,1.2h-1.7l-2.2-2.2c-0.1-0.1-0.3-0.2-0.4-0.2h-5.4v-1.8h9.8c0.3,0.7,0.9,1.2,1.7,1.2
	c1,0,1.8-0.8,1.8-1.8s-0.8-1.8-1.8-1.8c-0.8,0-1.5,0.5-1.7,1.2h-9.8v-1.8h5.4c0.2,0,0.3-0.1,0.4-0.2l2.2-2.2h1.7
	c0.3,0.7,0.9,1.2,1.7,1.2c1,0,1.8-0.8,1.8-1.8s-0.8-1.8-1.8-1.8c-0.8,0-1.5,0.5-1.7,1.2h-1.9c-0.2,0-0.3,0.1-0.4,0.2L30,17h-5.2
	v-1.8h3c0.2,0,0.3-0.1,0.4-0.2l4.7-4.7h1.7c0.3,0.7,0.9,1.2,1.7,1.2c1,0,1.8-0.8,1.8-1.8S37.3,8,36.3,8c-0.8,0-1.5,0.5-1.7,1.2h-1.9
	c-0.2,0-0.3,0.1-0.4,0.2L27.6,14h-2.8v-1.8H26z M36.3,3.7c0.3,0,0.6,0.3,0.6,0.6c0,0.3-0.3,0.6-0.6,0.6c-0.3,0-0.6-0.3-0.6-0.6
	C35.7,4,36,3.7,36.3,3.7z M36.3,36.4c0.3,0,0.6,0.3,0.6,0.6c0,0.3-0.3,0.6-0.6,0.6c-0.3,0-0.6-0.3-0.6-0.6
	C35.7,36.6,36,36.4,36.3,36.4z M36.3,30.9c0.3,0,0.6,0.3,0.6,0.6s-0.3,0.6-0.6,0.6c-0.3,0-0.6-0.3-0.6-0.6S36,30.9,36.3,30.9z
	 M36.3,25.5c0.3,0,0.6,0.3,0.6,0.6s-0.3,0.6-0.6,0.6c-0.3,0-0.6-0.3-0.6-0.6S36,25.5,36.3,25.5z M36.3,20c0.3,0,0.6,0.3,0.6,0.6
	c0,0.3-0.3,0.6-0.6,0.6c-0.3,0-0.6-0.3-0.6-0.6S36,20,36.3,20z M36.3,14.6c0.3,0,0.6,0.3,0.6,0.6c0,0.3-0.3,0.6-0.6,0.6
	c-0.3,0-0.6-0.3-0.6-0.6C35.7,14.9,36,14.6,36.3,14.6z M36.3,9.2c0.3,0,0.6,0.3,0.6,0.6s-0.3,0.6-0.6,0.6c-0.3,0-0.6-0.3-0.6-0.6
	S36,9.2,36.3,9.2z M18.1,13.4h3.1V20h-3.1c-0.3-1.4-1.5-2.4-3-2.4c-0.8,0-1.4,0.3-2,0.8L11,16.7l2.2-1.7c0.5,0.5,1.2,0.8,2,0.8
	C16.6,15.8,17.8,14.8,18.1,13.4z M13.4,20.6c0-1,0.8-1.8,1.8-1.8s1.8,0.8,1.8,1.8s-0.8,1.8-1.8,1.8S13.4,21.6,13.4,20.6z M15.2,11
	c1,0,1.8,0.8,1.8,1.8s-0.8,1.8-1.8,1.8s-1.8-0.8-1.8-1.8S14.2,11,15.2,11z M4.9,6.8c-1,0-1.8-0.8-1.8-1.8s0.8-1.8,1.8-1.8
	s1.8,0.8,1.8,1.8S5.9,6.8,4.9,6.8z M4.9,14.6c-1,0-1.8-0.8-1.8-1.8S3.9,11,4.9,11s1.8,0.8,1.8,1.8S5.9,14.6,4.9,14.6z M7.6,14.1
	c0.1-0.2,0.2-0.5,0.3-0.7h4.4c0.1,0.3,0.1,0.5,0.3,0.7L10,16L7.6,14.1z M12.5,19.3c-0.1,0.2-0.2,0.5-0.3,0.7H7.9
	c-0.1-0.3-0.1-0.5-0.3-0.7l2.4-1.9L12.5,19.3z M4.9,22.5c-1,0-1.8-0.8-1.8-1.8s0.8-1.8,1.8-1.8s1.8,0.8,1.8,1.8S5.9,22.5,4.9,22.5z
	 M7.6,22c0.1-0.2,0.2-0.5,0.3-0.7h4.4c0.1,0.3,0.1,0.5,0.3,0.7L10,23.8L7.6,22z M12.2,27.9H7.9c-0.1-0.3-0.1-0.5-0.3-0.7l2.4-1.9
	l2.4,1.9C12.3,27.4,12.3,27.6,12.2,27.9z M4.9,30.3c-1,0-1.8-0.8-1.8-1.8s0.8-1.8,1.8-1.8s1.8,0.8,1.8,1.8S5.9,30.3,4.9,30.3z
	 M4.9,38.2c-1,0-1.8-0.8-1.8-1.8c0-1,0.8-1.8,1.8-1.8s1.8,0.8,1.8,1.8C6.7,37.4,5.9,38.2,4.9,38.2z M15.2,30.3c-1,0-1.8-0.8-1.8-1.8
	s0.8-1.8,1.8-1.8s1.8,0.8,1.8,1.8S16.2,30.3,15.2,30.3z M18.1,27.9c-0.3-1.4-1.5-2.4-3-2.4c-0.8,0-1.4,0.3-2,0.8L11,24.6l2.2-1.7
	c0.5,0.5,1.2,0.8,2,0.8c1.5,0,2.7-1,3-2.4h3.1v6.6H18.1z M23.6,30.3c0,0.3-0.3,0.6-0.6,0.6c-0.3,0-0.6-0.3-0.6-0.6V10.4
	c0-0.3,0.3-0.6,0.6-0.6c0.3,0,0.6,0.3,0.6,0.6V30.3z"/>
</svg>
