<?xml version="1.0" encoding="UTF-8" standalone="no"?>
<svg
   xmlns:dc="http://purl.org/dc/elements/1.1/"
   xmlns:cc="http://creativecommons.org/ns#"
   xmlns:rdf="http://www.w3.org/1999/02/22-rdf-syntax-ns#"
   xmlns:svg="http://www.w3.org/2000/svg"
   xmlns="http://www.w3.org/2000/svg"
   xmlns:sodipodi="http://sodipodi.sourceforge.net/DTD/sodipodi-0.dtd"
   xmlns:inkscape="http://www.inkscape.org/namespaces/inkscape"
   version="1.1"
   width="256"
   height="289"
   viewBox="0,0,256,289"
   id="svg2"
   inkscape:version="0.48.4 r9939"
   sodipodi:docname="tinybit_top.svg">
  <metadata
     id="metadata110">
    <rdf:RDF>
      <cc:Work
         rdf:about="">
        <dc:format>image/svg+xml</dc:format>
        <dc:type
           rdf:resource="http://purl.org/dc/dcmitype/StillImage" />
        <dc:title></dc:title>
      </cc:Work>
    </rdf:RDF>
  </metadata>
  <defs
     id="defs108" />
  <sodipodi:namedview
     pagecolor="#ffffff"
     bordercolor="#666666"
     borderopacity="1"
     objecttolerance="10"
     gridtolerance="10"
     guidetolerance="10"
     inkscape:pageopacity="0"
     inkscape:pageshadow="2"
     inkscape:window-width="1301"
     inkscape:window-height="744"
     id="namedview106"
     showgrid="false"
     inkscape:zoom="2.309719"
     inkscape:cx="196.22786"
     inkscape:cy="209.61429"
     inkscape:window-x="65"
     inkscape:window-y="24"
     inkscape:window-maximized="1"
     inkscape:current-layer="svg2" />
  <path
     sodipodi:type="arc"
     style="fill:#000000;fill-opacity:1;stroke:none"
     id="path3198"
     sodipodi:cx="79.013939"
     sodipodi:cy="125.34373"
     sodipodi:rx="62.994675"
     sodipodi:ry="116.46438"
     d="m 142.00861,125.34373 a 62.994675,116.46438 0 1 1 -125.989346,0 62.994675,116.46438 0 1 1 125.989346,0 z"
     transform="matrix(2.0137457,0,0,1.1858736,-31.825773,-3.8152022)" />
  <rect
     style="fill:#000000;fill-opacity:1;stroke:#ff006d;stroke-opacity:1"
     id="rect3196"
     width="100.44511"
     height="145.47224"
     x="65.369202"
     y="70.432968" />
  <path
     sodipodi:type="arc"
     style="fill:#ff006d;fill-opacity:1;stroke:none"
     id="path3200"
     sodipodi:cx="81.611656"
     sodipodi:cy="144.39366"
     sodipodi:rx="1.0823827"
     sodipodi:ry="13.421546"
     d="m 82.694039,144.39366 a 1.0823827,13.421546 0 1 1 -2.164765,0 1.0823827,13.421546 0 1 1 2.164765,0 z"
     transform="matrix(4.1396749,0,0,0.96287699,-261.00327,3.2698445)" />
  <path
     style="fill:#ff006d;fill-opacity:1;stroke:none"
     d="m 65.80216,190.36097 21.64765,25.11128 -22.08061,0 z"
     id="path3204"
     inkscape:connector-curvature="0" />
  <path
     transform="translate(3.67339,-17.24384)"
     d="m 105.64057,145.47604 a 2.381242,2.381242 0 1 1 -4.76249,0 2.381242,2.381242 0 1 1 4.76249,0 z"
     sodipodi:ry="2.381242"
     sodipodi:rx="2.381242"
     sodipodi:cy="145.47604"
     sodipodi:cx="103.25932"
     id="path3256"
     style="fill:#1a1a1a;fill-opacity:1;stroke:none"
     sodipodi:type="arc" />
  <path
     sodipodi:type="arc"
     style="fill:#ff0000;fill-opacity:1;stroke:none"
     id="path3258"
     sodipodi:cx="103.25932"
     sodipodi:cy="145.47604"
     sodipodi:rx="2.381242"
     sodipodi:ry="2.381242"
     d="m 105.64057,145.47604 a 2.381242,2.381242 0 1 1 -4.76249,0 2.381242,2.381242 0 1 1 4.76249,0 z"
     transform="translate(3.67339,-10.316591)" />
  <path
     transform="translate(3.67339,-2.7399117)"
     d="m 105.64057,145.47604 a 2.381242,2.381242 0 1 1 -4.76249,0 2.381242,2.381242 0 1 1 4.76249,0 z"
     sodipodi:ry="2.381242"
     sodipodi:rx="2.381242"
     sodipodi:cy="145.47604"
     sodipodi:cx="103.25932"
     id="path3260"
     style="fill:#1a1a1a;fill-opacity:1;stroke:none"
     sodipodi:type="arc" />
  <path
     sodipodi:type="arc"
     style="fill:#ff0000;fill-opacity:1;stroke:none"
     id="path3262"
     sodipodi:cx="103.25932"
     sodipodi:cy="145.47604"
     sodipodi:rx="2.381242"
     sodipodi:ry="2.381242"
     d="m 105.64057,145.47604 a 2.381242,2.381242 0 1 1 -4.76249,0 2.381242,2.381242 0 1 1 4.76249,0 z"
     transform="translate(3.67339,4.4038143)" />
  <path
     transform="translate(3.67339,11.331064)"
     d="m 105.64057,145.47604 a 2.381242,2.381242 0 1 1 -4.76249,0 2.381242,2.381242 0 1 1 4.76249,0 z"
     sodipodi:ry="2.381242"
     sodipodi:rx="2.381242"
     sodipodi:cy="145.47604"
     sodipodi:cx="103.25932"
     id="path3264"
     style="fill:#1a1a1a;fill-opacity:1;stroke:none"
     sodipodi:type="arc" />
  <path
     sodipodi:type="arc"
     style="fill:#ff0000;fill-opacity:1;stroke:none"
     id="path3266"
     sodipodi:cx="103.25932"
     sodipodi:cy="145.47604"
     sodipodi:rx="2.381242"
     sodipodi:ry="2.381242"
     d="m 105.64057,145.47604 a 2.381242,2.381242 0 1 1 -4.76249,0 2.381242,2.381242 0 1 1 4.76249,0 z"
     transform="translate(10.16769,-17.24384)" />
  <path
     transform="translate(10.16769,-10.316591)"
     d="m 105.64057,145.47604 a 2.381242,2.381242 0 1 1 -4.76249,0 2.381242,2.381242 0 1 1 4.76249,0 z"
     sodipodi:ry="2.381242"
     sodipodi:rx="2.381242"
     sodipodi:cy="145.47604"
     sodipodi:cx="103.25932"
     id="path3268"
     style="fill:#ff0000;fill-opacity:1;stroke:none"
     sodipodi:type="arc" />
  <path
     sodipodi:type="arc"
     style="fill:#ff0000;fill-opacity:1;stroke:none"
     id="path3270"
     sodipodi:cx="103.25932"
     sodipodi:cy="145.47604"
     sodipodi:rx="2.381242"
     sodipodi:ry="2.381242"
     d="m 105.64057,145.47604 a 2.381242,2.381242 0 1 1 -4.76249,0 2.381242,2.381242 0 1 1 4.76249,0 z"
     transform="translate(10.16769,-2.7399117)" />
  <path
     transform="translate(10.16769,4.4038143)"
     d="m 105.64057,145.47604 a 2.381242,2.381242 0 1 1 -4.76249,0 2.381242,2.381242 0 1 1 4.76249,0 z"
     sodipodi:ry="2.381242"
     sodipodi:rx="2.381242"
     sodipodi:cy="145.47604"
     sodipodi:cx="103.25932"
     id="path3272"
     style="fill:#ff0000;fill-opacity:1;stroke:none"
     sodipodi:type="arc" />
  <path
     sodipodi:type="arc"
     style="fill:#ff0000;fill-opacity:1;stroke:none"
     id="path3274"
     sodipodi:cx="103.25932"
     sodipodi:cy="145.47604"
     sodipodi:rx="2.381242"
     sodipodi:ry="2.381242"
     d="m 105.64057,145.47604 a 2.381242,2.381242 0 1 1 -4.76249,0 2.381242,2.381242 0 1 1 4.76249,0 z"
     transform="translate(10.16769,11.331064)" />
  <path
     transform="translate(17.52789,-17.24384)"
     d="m 105.64057,145.47604 a 2.381242,2.381242 0 1 1 -4.76249,0 2.381242,2.381242 0 1 1 4.76249,0 z"
     sodipodi:ry="2.381242"
     sodipodi:rx="2.381242"
     sodipodi:cy="145.47604"
     sodipodi:cx="103.25932"
     id="path3276"
     style="fill:#ff0000;fill-opacity:1;stroke:none"
     sodipodi:type="arc" />
  <path
     sodipodi:type="arc"
     style="fill:#ff0000;fill-opacity:1;stroke:none"
     id="path3278"
     sodipodi:cx="103.25932"
     sodipodi:cy="145.47604"
     sodipodi:rx="2.381242"
     sodipodi:ry="2.381242"
     d="m 105.64057,145.47604 a 2.381242,2.381242 0 1 1 -4.76249,0 2.381242,2.381242 0 1 1 4.76249,0 z"
     transform="translate(17.52789,-10.316591)" />
  <path
     transform="translate(17.52789,-2.7399117)"
     d="m 105.64057,145.47604 a 2.381242,2.381242 0 1 1 -4.76249,0 2.381242,2.381242 0 1 1 4.76249,0 z"
     sodipodi:ry="2.381242"
     sodipodi:rx="2.381242"
     sodipodi:cy="145.47604"
     sodipodi:cx="103.25932"
     id="path3280"
     style="fill:#ff0000;fill-opacity:1;stroke:none"
     sodipodi:type="arc" />
  <path
     sodipodi:type="arc"
     style="fill:#ff0000;fill-opacity:1;stroke:none"
     id="path3282"
     sodipodi:cx="103.25932"
     sodipodi:cy="145.47604"
     sodipodi:rx="2.381242"
     sodipodi:ry="2.381242"
     d="m 105.64057,145.47604 a 2.381242,2.381242 0 1 1 -4.76249,0 2.381242,2.381242 0 1 1 4.76249,0 z"
     transform="translate(17.52789,4.4038143)" />
  <path
     transform="translate(17.52789,11.331064)"
     d="m 105.64057,145.47604 a 2.381242,2.381242 0 1 1 -4.76249,0 2.381242,2.381242 0 1 1 4.76249,0 z"
     sodipodi:ry="2.381242"
     sodipodi:rx="2.381242"
     sodipodi:cy="145.47604"
     sodipodi:cx="103.25932"
     id="path3284"
     style="fill:#ff0000;fill-opacity:1;stroke:none"
     sodipodi:type="arc" />
  <path
     sodipodi:type="arc"
     style="fill:#1a1a1a;fill-opacity:1;stroke:none"
     id="path3286"
     sodipodi:cx="103.25932"
     sodipodi:cy="145.47604"
     sodipodi:rx="2.381242"
     sodipodi:ry="2.381242"
     d="m 105.64057,145.47604 a 2.381242,2.381242 0 1 1 -4.76249,0 2.381242,2.381242 0 1 1 4.76249,0 z"
     transform="translate(24.02219,-17.24384)" />
  <path
     transform="translate(24.02219,-10.316591)"
     d="m 105.64057,145.47604 a 2.381242,2.381242 0 1 1 -4.76249,0 2.381242,2.381242 0 1 1 4.76249,0 z"
     sodipodi:ry="2.381242"
     sodipodi:rx="2.381242"
     sodipodi:cy="145.47604"
     sodipodi:cx="103.25932"
     id="path3288"
     style="fill:#ff0000;fill-opacity:1;stroke:none"
     sodipodi:type="arc" />
  <path
     sodipodi:type="arc"
     style="fill:#ff0000;fill-opacity:1;stroke:none"
     id="path3290"
     sodipodi:cx="103.25932"
     sodipodi:cy="145.47604"
     sodipodi:rx="2.381242"
     sodipodi:ry="2.381242"
     d="m 105.64057,145.47604 a 2.381242,2.381242 0 1 1 -4.76249,0 2.381242,2.381242 0 1 1 4.76249,0 z"
     transform="translate(24.02219,-2.7399117)" />
  <path
     transform="translate(24.02219,4.4038143)"
     d="m 105.64057,145.47604 a 2.381242,2.381242 0 1 1 -4.76249,0 2.381242,2.381242 0 1 1 4.76249,0 z"
     sodipodi:ry="2.381242"
     sodipodi:rx="2.381242"
     sodipodi:cy="145.47604"
     sodipodi:cx="103.25932"
     id="path3292"
     style="fill:#ff0000;fill-opacity:1;stroke:none"
     sodipodi:type="arc" />
  <path
     sodipodi:type="arc"
     style="fill:#1a1a1a;fill-opacity:1;stroke:none"
     id="path3294"
     sodipodi:cx="103.25932"
     sodipodi:cy="145.47604"
     sodipodi:rx="2.381242"
     sodipodi:ry="2.381242"
     d="m 105.64057,145.47604 a 2.381242,2.381242 0 1 1 -4.76249,0 2.381242,2.381242 0 1 1 4.76249,0 z"
     transform="translate(24.02219,11.331064)" />
  <path
     transform="translate(30.08353,-17.24384)"
     d="m 105.64057,145.47604 a 2.381242,2.381242 0 1 1 -4.76249,0 2.381242,2.381242 0 1 1 4.76249,0 z"
     sodipodi:ry="2.381242"
     sodipodi:rx="2.381242"
     sodipodi:cy="145.47604"
     sodipodi:cx="103.25932"
     id="path3296"
     style="fill:#1a1a1a;fill-opacity:1;stroke:none"
     sodipodi:type="arc" />
  <path
     sodipodi:type="arc"
     style="fill:#1a1a1a;fill-opacity:1;stroke:none"
     id="path3298"
     sodipodi:cx="103.25932"
     sodipodi:cy="145.47604"
     sodipodi:rx="2.381242"
     sodipodi:ry="2.381242"
     d="m 105.64057,145.47604 a 2.381242,2.381242 0 1 1 -4.76249,0 2.381242,2.381242 0 1 1 4.76249,0 z"
     transform="translate(30.08353,-10.316591)" />
  <path
     transform="translate(30.08353,-2.7399117)"
     d="m 105.64057,145.47604 a 2.381242,2.381242 0 1 1 -4.76249,0 2.381242,2.381242 0 1 1 4.76249,0 z"
     sodipodi:ry="2.381242"
     sodipodi:rx="2.381242"
     sodipodi:cy="145.47604"
     sodipodi:cx="103.25932"
     id="path3300"
     style="fill:#ff0000;fill-opacity:1;stroke:none"
     sodipodi:type="arc" />
  <path
     sodipodi:type="arc"
     style="fill:#1a1a1a;fill-opacity:1;stroke:none"
     id="path3302"
     sodipodi:cx="103.25932"
     sodipodi:cy="145.47604"
     sodipodi:rx="2.381242"
     sodipodi:ry="2.381242"
     d="m 105.64057,145.47604 a 2.381242,2.381242 0 1 1 -4.76249,0 2.381242,2.381242 0 1 1 4.76249,0 z"
     transform="translate(30.08353,4.4038143)" />
  <path
     transform="translate(30.08353,11.331064)"
     d="m 105.64057,145.47604 a 2.381242,2.381242 0 1 1 -4.76249,0 2.381242,2.381242 0 1 1 4.76249,0 z"
     sodipodi:ry="2.381242"
     sodipodi:rx="2.381242"
     sodipodi:cy="145.47604"
     sodipodi:cx="103.25932"
     id="path3304"
     style="fill:#1a1a1a;fill-opacity:1;stroke:none"
     sodipodi:type="arc" />
  <rect
     style="fill:#ffbb00;fill-opacity:1;stroke:none"
     id="rect3306"
     width="8.2658901"
     height="144.16309"
     x="156.5162"
     y="71.04081" />
  <path
     sodipodi:type="arc"
     style="fill:#000000;fill-opacity:1;stroke:#ffbb00;stroke-width:0.38124642;stroke-miterlimit:4;stroke-opacity:1;stroke-dasharray:none"
     id="path3308"
     sodipodi:cx="156.89883"
     sodipodi:cy="90.771713"
     sodipodi:rx="0.15307203"
     sodipodi:ry="7.8066735"
     d="m 157.05191,90.771713 a 0.15307203,7.8066735 0 1 1 -0.30615,0 0.15307203,7.8066735 0 1 1 0.30615,0 z"
     transform="matrix(43.000002,0,0,1,-6592.2813,-1.2245763)" />
  <path
     transform="matrix(43.000002,0,0,1,-6592.2813,25.716102)"
     d="m 157.05191,90.771713 a 0.15307203,7.8066735 0 1 1 -0.30615,0 0.15307203,7.8066735 0 1 1 0.30615,0 z"
     sodipodi:ry="7.8066735"
     sodipodi:rx="0.15307203"
     sodipodi:cy="90.771713"
     sodipodi:cx="156.89883"
     id="path4078"
     style="fill:#000000;fill-opacity:1;stroke:#ffbb00;stroke-width:0.38124642;stroke-miterlimit:4;stroke-opacity:1;stroke-dasharray:none"
     sodipodi:type="arc" />
  <path
     sodipodi:type="arc"
     style="fill:#000000;fill-opacity:1;stroke:#ffbb00;stroke-width:0.38124642;stroke-miterlimit:4;stroke-opacity:1;stroke-dasharray:none"
     id="path4080"
     sodipodi:cx="156.89883"
     sodipodi:cy="90.771713"
     sodipodi:rx="0.15307203"
     sodipodi:ry="7.8066735"
     d="m 157.05191,90.771713 a 0.15307203,7.8066735 0 1 1 -0.30615,0 0.15307203,7.8066735 0 1 1 0.30615,0 z"
     transform="matrix(43.000002,0,0,1,-6592.2813,52.350636)" />
  <path
     transform="matrix(43.000002,0,0,1,-6592.2813,80.822034)"
     d="m 157.05191,90.771713 a 0.15307203,7.8066735 0 1 1 -0.30615,0 0.15307203,7.8066735 0 1 1 0.30615,0 z"
     sodipodi:ry="7.8066735"
     sodipodi:rx="0.15307203"
     sodipodi:cy="90.771713"
     sodipodi:cx="156.89883"
     id="path4082"
     style="fill:#000000;fill-opacity:1;stroke:#ffbb00;stroke-width:0.38124642;stroke-miterlimit:4;stroke-opacity:1;stroke-dasharray:none"
     sodipodi:type="arc" />
  <path
     sodipodi:type="arc"
     style="fill:#000000;fill-opacity:1;stroke:#ffbb00;stroke-width:0.38124642;stroke-miterlimit:4;stroke-opacity:1;stroke-dasharray:none"
     id="path4084"
     sodipodi:cx="156.89883"
     sodipodi:cy="90.771713"
     sodipodi:rx="0.15307203"
     sodipodi:ry="7.8066735"
     d="m 157.05191,90.771713 a 0.15307203,7.8066735 0 1 1 -0.30615,0 0.15307203,7.8066735 0 1 1 0.30615,0 z"
     transform="matrix(43.000002,0,0,1,-6592.2813,105.00741)" />
  <rect
     style="fill:#1a1a1a;fill-opacity:1;stroke:none"
     id="rect3190"
     width="93.517868"
     height="63.211151"
     x="18.184031"
     y="226.65475"
     ry="11.327331" />
  <rect
     style="fill:#1a1a1a;fill-opacity:1;stroke:none"
     id="rect3188"
     width="92.651962"
     height="62.345245"
     x="19.482889"
     y="-0.21266617"
     ry="13.164195" />
  <rect
     style="fill:#c3c3c3;fill-opacity:1;stroke:none;stroke-width:2.50000000000000000;stroke-miterlimit:4;stroke-dasharray:none"
     id="rect3194"
     width="32.038528"
     height="45.460075"
     x="224.64131"
     y="160.41293" />
  <rect
     style="fill:#c3c3c3;fill-opacity:1;stroke:none;stroke-width:2.50000000000000000;stroke-miterlimit:4;stroke-dasharray:none"
     id="rect3192"
     width="35.935108"
     height="44.161217"
     x="220.74474"
     y="83.347282" />
  <rect
     style="fill:#0072ff;fill-opacity:1;stroke:none;stroke-width:2.50000000000000000;stroke-miterlimit:4;stroke-dasharray:none"
     id="rect3186"
     width="9.957921"
     height="137.67908"
     x="215.5493"
     y="75.554123" />
  <path
     style="fill:#b3b3b3;fill-opacity:1;stroke:#ffffff;stroke-width:1.7;stroke-linecap:round;stroke-linejoin:round;stroke-miterlimit:4;stroke-opacity:1;stroke-dasharray:none;stroke-dashoffset:0"
     d="m 193.40733,49.439261 0,19.353557 13.28962,0 c 0.4495,0.05854 0.89998,0.09976 1.36621,0.09976 5.5948,0 10.12247,-4.355749 10.12247,-9.726659 0,-5.370909 -4.52767,-9.726659 -10.12247,-9.726659 -0.0105,0 -0.0205,-3e-5 -0.031,0 l -14.62479,0 z"
     id="rect4122"
     inkscape:connector-curvature="0" />
  <path
     inkscape:connector-curvature="0"
     id="path4127"
     d="m 193.40733,219.58983 0,19.35355 13.28962,0 c 0.4495,0.0585 0.89998,0.0998 1.36621,0.0998 5.5948,0 10.12247,-4.35575 10.12247,-9.72666 0,-5.3709 -4.52767,-9.72665 -10.12247,-9.72665 -0.0105,0 -0.0205,-3e-5 -0.031,0 l -14.62479,0 z"
     style="fill:#b3b3b3;fill-opacity:1;stroke:#ffffff;stroke-width:1.7;stroke-linecap:round;stroke-linejoin:round;stroke-miterlimit:4;stroke-opacity:1;stroke-dasharray:none;stroke-dashoffset:0" />
</svg>
